<svg xmlns="http://www.w3.org/2000/svg" height="66.161" width="66.161" viewBox="0 0 62.02625 62.024999"><path opacity=".4" d="M61.4 31.01c0 16.782-13.605 30.388-30.388 30.388C14.228 61.398.623 47.793.623 31.01.623 14.228 14.228.622 31.012.622 47.794.622 61.4 14.227 61.4 31.01z" stroke="#244a7b" stroke-miterlimit="10" stroke-width="1.25" fill="none"/><g fill="#2196d4"><path d="M31.41 8.19a3.969 3.969 0 1 1 0 7.938 3.969 3.969 0 0 1 0-7.938M43.4 49.23v-.001c-.044-.229-3.704-10.415-3.704-10.415l-5.529-5.63V21.756c0-2.596-4.708-4.291-5.258-3.911-.362.25-8.644 5.39-8.644 5.39l-.879 8.745a1.787 1.787 0 1 0 3.556.245l.739-6.66 4.115-2.396v9.98l7.551 7.282 3.854 9.985a2.191 2.191 0 0 0 4.237-.781c0-.139 0-.2-.038-.405"/><path d="M18.55 49.06a2.191 2.191 0 0 0 1.667 3.611c.774 0 1.452-.401 1.842-1.007l6.702-8.67 2.061-4.558-3.388-3.176-2.505 5.112-6.38 8.688z"/></g><path stroke-linejoin="round" d="M18.55 49.06a2.191 2.191 0 0 0 1.667 3.611c.774 0 1.452-.401 1.842-1.007l6.702-8.67 2.061-4.558-3.388-3.176-2.505 5.112-6.38 8.688z" stroke="#2196d4" stroke-miterlimit="10" stroke-width=".625" fill="none"/><path d="M35.77 26.28s-.067 4.922 0 4.821c.059-.089 2.479 1.919 3.101 2.438.045.043.094.083.144.12l.001.002a1.787 1.787 0 0 0 2.855-1.43c0-.665-.361-1.075-.904-1.551l-5.197-4.4z" fill="#2196d4"/><path stroke-linejoin="round" d="M35.77 26.28s-.067 4.922 0 4.821c.059-.089 2.479 1.919 3.101 2.438.045.043.094.083.144.12l.001.002a1.787 1.787 0 0 0 2.855-1.43c0-.665-.361-1.075-.904-1.551l-5.197-4.4z" stroke="#2196d4" stroke-miterlimit="10" stroke-width=".625" fill="none"/></svg>