<svg xmlns="http://www.w3.org/2000/svg" height="736.57" viewBox="0 0 658.36249 736.5675" width="658.36"><defs><clipPath id="a"><path d="M0 589.25h526.69V0H0v589.25z"/></clipPath><clipPath id="b"><path d="M.557 530.06h117.48V412.58H.557v117.48z"/></clipPath><clipPath id="c"><path d="M117.54 471.82h10.483v-1H117.54v1z"/></clipPath><clipPath id="d"><path d="M172.25 471.82h11.214v-1H172.25v1z"/></clipPath><clipPath id="e"><path d="M297.76 359.54h117.48V242.06H297.76v117.48z"/></clipPath><clipPath id="f"><path d="M192.2 530.06h117.48V412.58H192.2v117.48z"/></clipPath><clipPath id="g"><path d="M383.85 530.06h117.48V412.58H383.85v117.48z"/></clipPath><clipPath id="h"><path d="M302.52 249.58h26.54v-47.845h-26.54v47.845z"/></clipPath><clipPath id="i"><path d="M127.52 493.94h45.228v-45.228H127.52v45.228z"/></clipPath><clipPath id="j"><path d="M428.83 413.09h12.545V300.3H428.83v112.79z"/></clipPath><clipPath id="k"><path d="M383.94 249.58h26.54v-47.845h-26.54v47.845z"/></clipPath><clipPath id="l"><path d="M0 589.25h526.69V0H0v589.25z"/></clipPath><clipPath id="m"><path d="M0 589.25h526.69V0H0v589.25z"/></clipPath><clipPath id="n"><path d="M0 589.25h526.69V0H0v589.25z"/></clipPath><clipPath id="o"><path d="M0 589.25h526.69V0H0v589.25z"/></clipPath><clipPath id="p"><path d="M0 589.25h526.69V0H0v589.25z"/></clipPath><clipPath id="q"><path d="M0 589.25h526.69V0H0v589.25z"/></clipPath><clipPath id="r"><path d="M.356 202.19h117.48V84.71H.356v117.48z"/></clipPath><clipPath id="s"><path d="M309.25 471.82h10.483v-1H309.25v1z"/></clipPath><clipPath id="t"><path d="M363.96 471.82h11.214v-1H363.96v1z"/></clipPath><clipPath id="u"><path d="M319.23 493.94h45.228v-45.228H319.23v45.228z"/></clipPath><clipPath id="v"><path d="M383.88 201.65h117.48V84.17H383.88v117.48z"/></clipPath><clipPath id="w"><path d="M0 589.25h526.69V0H0v589.25z"/></clipPath><clipPath id="x"><path d="M212.41 201.65h117.48V84.17H212.41v117.48z"/></clipPath><clipPath id="y"><path d="M0 589.25h526.69V0H0v589.25z"/></clipPath><clipPath id="z"><path d="M0 589.25h526.69V0H0v589.25z"/></clipPath><clipPath id="A"><path d="M58.941 357.79h1V201.5h-1v156.29z"/></clipPath><clipPath id="B"><path d="M135.6 143.42h78.249v-1H135.6v1z"/></clipPath></defs><g clip-path="url(#a)" transform="matrix(1.25 0 0 -1.25 0 736.57)"><g opacity=".4" clip-path="url(#b)"><path d="M117.54 471.32c0-32.165-26.075-58.239-58.239-58.239-32.165 0-58.239 26.074-58.239 58.239s26.074 58.239 58.239 58.239c32.166 0 58.241-26.074 58.241-58.239z" stroke="#244a7b" stroke-miterlimit="10" fill="none"/></g><g opacity=".4" clip-path="url(#c)"><path d="M117.54 471.32h10.483" stroke="#244a7b" stroke-miterlimit="10" fill="none"/></g><g opacity=".4" clip-path="url(#d)"><path d="M172.25 471.32h11.214" stroke="#244a7b" stroke-miterlimit="10" fill="none"/></g><g opacity=".4" clip-path="url(#e)"><path d="M414.74 300.8c0-32.165-26.075-58.239-58.239-58.239-32.165 0-58.239 26.074-58.239 58.239s26.074 58.239 58.239 58.239c32.166 0 58.241-26.074 58.241-58.239z" stroke="#244a7b" stroke-miterlimit="10" fill="none"/></g><g opacity=".4" clip-path="url(#f)"><path d="M309.18 471.32c0-32.165-26.075-58.239-58.239-58.239-32.165 0-58.239 26.074-58.239 58.239s26.074 58.239 58.239 58.239c32.166 0 58.241-26.074 58.241-58.239z" stroke="#244a7b" stroke-miterlimit="10" fill="none"/></g><g opacity=".4" clip-path="url(#g)"><path d="M500.82 471.32c0-32.165-26.075-58.239-58.239-58.239-32.165 0-58.239 26.074-58.239 58.239s26.074 58.239 58.239 58.239c32.166 0 58.241-26.074 58.241-58.239z" stroke="#244a7b" stroke-miterlimit="10" fill="none"/></g><g opacity=".4" clip-path="url(#h)"><path d="M328.63 249.34l-25.661-47.368" stroke="#244a7b" stroke-miterlimit="10" fill="none"/></g><g opacity=".4" clip-path="url(#i)"><path d="M172.25 471.32c0-12.213-9.901-22.114-22.114-22.114s-22.113 9.901-22.113 22.114 9.9 22.114 22.113 22.114 22.114-9.901 22.114-22.114z" stroke="#244a7b" stroke-miterlimit="10" fill="none"/></g><g opacity=".4" clip-path="url(#j)"><path d="M440.88 413.09V300.8h-12.045" stroke="#244a7b" stroke-miterlimit="10" fill="none"/></g><g opacity=".4" clip-path="url(#k)"><path d="M384.38 249.34l25.661-47.368" stroke="#244a7b" stroke-miterlimit="10" fill="none"/></g><path d="M72.12 529.56c0-7.082-5.741-12.824-12.824-12.824-7.082 0-12.823 5.742-12.823 12.824s5.741 12.824 12.823 12.824c7.083 0 12.824-5.742 12.824-12.824M120.64 471.32a3.104 3.104 0 1 0-6.207 0 3.104 3.104 0 0 0 6.207 0M440.88 409.98a3.104 3.104 0 1 0 0 6.207 3.104 3.104 0 0 0 0-6.207M331.73 249.34a3.104 3.104 0 1 0-6.207 0 3.104 3.104 0 0 0 6.207 0M387.48 249.34a3.104 3.104 0 1 0-6.207 0 3.104 3.104 0 0 0 6.207 0M179.82 471.32v4.707l4.076-2.354 4.077-2.353-4.077-2.353-4.076-2.354v4.707zM302.05 205.86v4.707l4.076-2.354 4.077-2.353-4.077-2.353-4.076-2.354v4.707zM410.95 205.77v-4.707l-4.076 2.354-4.077 2.353 4.077 2.353 4.076 2.354v-4.707z" fill="#2196d4"/></g><text font-weight="bold" transform="matrix(1.25 0 0 1.25 67.63 81.47)" font-size="17" font-family="Roboto" fill="#fff"><tspan y="0" x="0">1</tspan></text><g clip-path="url(#l)" transform="matrix(1.25 0 0 -1.25 0 736.57)"><path d="M263.76 529.56c0-7.082-5.741-12.824-12.824-12.824-7.082 0-12.823 5.742-12.823 12.824s5.741 12.824 12.823 12.824c7.083 0 12.824-5.742 12.824-12.824" fill="#2196d4"/></g><text font-weight="bold" transform="matrix(1.25 0 0 1.25 307.188 81.47)" font-size="17" font-family="Roboto" fill="#fff"><tspan y="0" x="0">2</tspan></text><g clip-path="url(#m)" transform="matrix(1.25 0 0 -1.25 0 736.57)"><path d="M455.41 529.56c0-7.082-5.741-12.824-12.824-12.824-7.082 0-12.823 5.742-12.823 12.824s5.741 12.824 12.823 12.824c7.083 0 12.824-5.742 12.824-12.824" fill="#2196d4"/></g><text font-weight="bold" transform="matrix(1.25 0 0 1.25 546.737 81.47)" font-size="17" font-family="Roboto" fill="#fff"><tspan y="0" x="0">3</tspan></text><g clip-path="url(#n)" transform="matrix(1.25 0 0 -1.25 0 736.57)"><path d="M310.21 300.13c0-7.082-5.741-12.824-12.824-12.824-7.082 0-12.823 5.742-12.823 12.824s5.741 12.824 12.823 12.824c7.083 0 12.824-5.742 12.824-12.824" fill="#2196d4"/></g><text font-weight="bold" transform="matrix(1.25 0 0 1.25 365.238 368.258)" font-size="16" font-family="Roboto" fill="#fff"><tspan y="0" x="0">4</tspan></text><text transform="matrix(1.25 0 0 1.25 22.033 256.083)" font-size="12.965" font-family="Roboto" fill="#2b2b2a"><tspan y="0" x="0 8.9130936 16.601042 25.053896 28.269093 33.701218 41.181736 48.662251 55.917187 61.639717 68.510902 75.096863">OSA гипотеза</tspan></text><g clip-path="url(#o)" transform="matrix(1.25 0 0 -1.25 0 736.57)"><text transform="matrix(1 0 0 -1 194.84 578.07)" font-size="12.965" font-family="Roboto" fill="#2b2b2a"><tspan y="0" x="0 8.4398899 15.829655 22.415621 30.239697 37.292385 44.090969 49.813499 56.593933 63.711441 66.926636 76.546295 84.026817 90.807251 97.587685 105.0682">Создается миссия</tspan></text></g><text transform="matrix(1.25 0 0 1.25 228.888 33.433)" font-size="12.965" font-family="Roboto" fill="#2b2b2a"><tspan y="0" x="0 7.4805164 14.870281 18.078995 25.559511 32.832596 40.222363 47.625092 54.496277 61.76936 68.669067 75.540253 78.748962 84.181091 91.661606 99.142128 106.39706 112.11959 118.99078 125.57674">по проверке гипотезы</tspan></text><g clip-path="url(#p)" transform="matrix(1.25 0 0 -1.25 0 736.57)"><text transform="matrix(1 0 0 -1 376.98 578.16)" font-size="12.965" font-family="Roboto" fill="#2b2b2a"><tspan y="0" x="0 9.2436886 16.516773 23.906538 31.309267 38.180454 45.453537 52.454369 59.507053 62.722252 70.124977 73.333694 82.953354 90.006042 95.438164 102.49085 109.07682 116.55733 124.03786">Проверка в магазине</tspan></text></g><text transform="matrix(1.25 0 0 1.25 496.737 33.308)" font-size="12.965" font-family="Roboto" fill="#2b2b2a"><tspan y="0" x="0 7.4027295 10.617926 16.340456 23.211641 30.251364 37.122551 44.603065 52.083584 58.954769 62.169964 69.209686 76.262375 83.042809">в течение часа</tspan><tspan y="250.889" x="-233.89255 -224.64885 -217.71025 -210.00674 -203.78378 -196.38106 -189.50987 -182.33144 -172.40062 -164.57655 -157.70537 -150.22485 -142.74432 -135.87314">Подтверждение </tspan><tspan y="266.446" x="-233.49065 -226.01013 -218.51665 -211.03613 -207.82094 -200.56599 -194.34305 -187.34221 -179.84872 -172.45897 -164.97845 -158.10727 -150.62674 -143.14622 -136.27504">или отклонение </tspan><tspan y="282.004" x="-213.33084 -207.89873 -200.41821 -192.93768 -185.68275 -179.96022 -173.08904 -166.50307">гипотезы</tspan><tspan y="501.895" x="-1.6075979 7.3054957 14.993444 23.446299 26.661493 34.485569 41.875336 49.148418 56.201107 63.370476 70.624115 76.847076 83.8479 90.900589">OSA доработка </tspan><tspan y="517.452" x="12.199594 19.252283 26.745764 32.056023 39.445789 46.718872 54.19939 60.430126 70.049789">алгоритма</tspan></text><g clip-path="url(#q)" transform="matrix(1.25 0 0 -1.25 0 736.57)"><path stroke-linejoin="round" d="M245.31 492.23c0 2.467-2 4.467-4.467 4.467H223.86c-2.467 0-4.466-2-4.466-4.467v-5.039h25.916v-27.134M219.4 450.41c0-2.467 2-4.467 4.467-4.467h16.983c2.467 0 4.466 2 4.466 4.467v5.039H219.4v27.134M225.9 491.8h12.904M230.1 450.79h4.5" stroke="#2196d4" stroke-linecap="round" stroke-miterlimit="10" stroke-width="2" fill="none"/><path d="M266.67 491.73c6.703.772 11.38-3.69 10.763-11.317-.173-2.125-1.052-4.668-2.109-6.546-1.001-1.783-3.258-3.506-2.664-5.77.377-1.431 3.525-2.274 4.662-2.773 2.9-1.275 6.969-3.176 7.988-6.213.264-.783.462-2.689 0-3.884-1.626-4.214-11.705-4.438-17.309-4.438-3.1 0-6.866.048-10.209.666-3.893.719-8.609 2.28-7.211 7.434.63 2.324 3.436 4.025 5.991 5.437.742.412 2.313 1.3 3.772 1.886 1.231.495 2.952.944 3.107 2.552.131 1.36-.732 2.088-1.553 3.218-1.879 2.584-3.648 6.105-3.329 10.874.315 4.68 3.227 8.314 8.101 8.874z" stroke="#2196d4" stroke-linecap="round" stroke-miterlimit="10" stroke-width="2" fill="none"/><path stroke-linejoin="round" d="M75.714 448.6h12.087a2.56 2.56 0 0 1 2.56 2.56v39.093a2.56 2.56 0 0 1-2.56 2.56h-5.378" stroke="#2196d4" stroke-linecap="round" stroke-miterlimit="10" stroke-width="2" fill="none"/><path stroke-linejoin="round" d="M36.169 448.6h-5.377a2.56 2.56 0 0 0-2.561 2.56v39.093a2.56 2.56 0 0 0 2.561 2.56h51.632v-39.665" stroke="#2196d4" stroke-linecap="round" stroke-miterlimit="10" stroke-width="2" fill="none"/><path stroke-linejoin="round" d="M53.859 448.6H36.168v39.665" stroke="#2196d4" stroke-linecap="round" stroke-miterlimit="10" stroke-width="2" fill="none"/><path d="M58.23 450.32v19.664a2.186 2.186 0 1 0 4.371 0v-13.469" stroke="#2196d4" stroke-linecap="round" stroke-miterlimit="10" stroke-width="2" fill="none"/><path d="M62.601 456.51v6.238a2.185 2.185 0 1 0 4.371 0v-8.376" stroke="#2196d4" stroke-linecap="round" stroke-miterlimit="10" stroke-width="2" fill="none"/><path d="M66.972 454.37v6.191a2.185 2.185 0 1 0 4.371 0v-8.29" stroke="#2196d4" stroke-linecap="round" stroke-miterlimit="10" stroke-width="2" fill="none"/><path d="M71.343 452.28v6.108a2.185 2.185 0 1 0 4.371 0v-9.176M53.859 449.21v6.997a2.186 2.186 0 1 0 4.371 0v-5.886M75.714 449.21c0-6.035-4.892-10.927-10.927-10.927s-10.928 4.892-10.928 10.927M54.257 469.98a6.159 6.159 0 0 0 12.318 0" stroke="#2196d4" stroke-linecap="round" stroke-miterlimit="10" stroke-width="2" fill="none"/><path d="M50.308 469.98c0 5.582 4.525 10.108 10.108 10.108 5.582 0 10.107-4.526 10.107-10.108" stroke="#2196d4" stroke-linecap="round" stroke-miterlimit="10" stroke-width="2" fill="none"/><path stroke-linejoin="round" d="M86.289 469.24v2.932M472.95 453.5l2.301-2.301a4.765 4.765 0 1 0-6.739-6.739l-12.131 12.131a4.765 4.765 0 1 0 6.739 6.739l7.206-7.206M424.88 470.74c-6.653 6.653-6.653 17.44 0 24.093s17.44 6.653 24.093 0 6.653-17.44 0-24.093-17.44-6.653-24.093 0zM456.38 463.33l-7.413 7.413M413.21 465.29v-12.413M419.42 459.08h-12.413M427.52 486.99l5.764-5.764M428.83 479.81l7.104-7.104" stroke="#2196d4" stroke-linecap="round" stroke-miterlimit="10" stroke-width="2" fill="none"/><g opacity=".4" clip-path="url(#r)"><path d="M117.33 143.45c0-32.165-26.075-58.239-58.239-58.239-32.165 0-58.24 26.074-58.24 58.239s26.075 58.239 58.24 58.239 58.24-26.074 58.24-58.239z" stroke="#244a7b" stroke-miterlimit="10" fill="none"/></g><path stroke-linejoin="round" d="M161.16 464.15h-22.067v14.348h22.067V464.15z" stroke="#2196d4" stroke-linecap="round" stroke-miterlimit="10" stroke-width="2" fill="none"/><path stroke-linejoin="round" d="M139.1 478.5l11.034-8.993 11.033 8.993M147.93 470.93l-8.834-6.844M161.17 464.09l-8.834 6.844" stroke="#2196d4" stroke-linecap="round" stroke-miterlimit="10" fill="none"/><g opacity=".4" clip-path="url(#s)"><path d="M309.25 471.32h10.483" stroke="#244a7b" stroke-miterlimit="10" fill="none"/></g><g opacity=".4" clip-path="url(#t)"><path d="M363.96 471.32h11.214" stroke="#244a7b" stroke-miterlimit="10" fill="none"/></g><g opacity=".4" clip-path="url(#u)"><path d="M363.96 471.32c0-12.213-9.901-22.114-22.114-22.114s-22.113 9.901-22.113 22.114 9.9 22.114 22.113 22.114 22.114-9.901 22.114-22.114z" stroke="#244a7b" stroke-miterlimit="10" fill="none"/></g><path d="M312.35 471.32a3.104 3.104 0 1 0-6.207 0 3.104 3.104 0 0 0 6.207 0M371.53 471.32v4.707l4.076-2.354 4.077-2.353-4.077-2.353-4.076-2.354v4.707z" fill="#2196d4"/><g opacity=".4" clip-path="url(#v)"><path d="M500.86 142.91c0-32.165-26.075-58.239-58.239-58.239-32.165 0-58.239 26.074-58.239 58.239s26.074 58.239 58.239 58.239c32.166 0 58.241-26.074 58.241-58.239z" stroke="#244a7b" stroke-miterlimit="10" fill="none"/></g><path d="M415.62 101.58c0-7.082-5.741-12.824-12.824-12.824-7.082 0-12.823 5.742-12.823 12.824s5.741 12.824 12.823 12.824c7.083 0 12.824-5.742 12.824-12.824" fill="#2196d4"/></g><text font-weight="bold" transform="matrix(1.25 0 0 1.25 493.162 615.023)" font-size="13" font-family="Roboto" fill="#fff"><tspan y="0" x="0 7.4619999">5A</tspan></text><g clip-path="url(#w)" transform="matrix(1.25 0 0 -1.25 0 736.57)"><path stroke-linejoin="round" d="M456.38 134.04l-11.445-10.322-3.059-12.622h-8.251v18.721h-10.269l-6.387 5.798v19.069l6.035 7.507h26.006l7.155-7.507" stroke="#2196d4" stroke-linecap="round" stroke-miterlimit="10" stroke-width="2" fill="none"/><path stroke-linejoin="round" d="M470.08 151.53v-21.719h-13.704v32.374h13.704v-5.639M463.23 134.95v3.753" stroke="#2196d4" stroke-linecap="round" stroke-miterlimit="10" stroke-width="2" fill="none"/><g opacity=".4" clip-path="url(#x)"><path d="M329.39 142.91c0-32.165-26.075-58.239-58.239-58.239-32.165 0-58.239 26.074-58.239 58.239s26.074 58.239 58.239 58.239c32.166 0 58.241-26.074 58.241-58.239z" stroke="#244a7b" stroke-miterlimit="10" fill="none"/></g><path d="M239.14 101.58c0-7.082-5.741-12.824-12.824-12.824-7.082 0-12.823 5.742-12.823 12.824s5.741 12.824 12.823 12.824c7.083 0 12.824-5.742 12.824-12.824" fill="#2196d4"/></g><text font-weight="bold" transform="matrix(1.25 0 0 1.25 272.575 615.023)" font-size="13" font-family="Roboto" fill="#fff"><tspan y="0" x="0 7.4619999">5B</tspan></text><g clip-path="url(#y)" transform="matrix(1.25 0 0 -1.25 0 736.57)"><path stroke-linejoin="round" d="M261.02 151.79l11.445 10.322 3.059 12.622h8.251v-18.721h10.269l6.387-5.798v-19.069l-6.035-7.507H268.39l-7.155 7.507" stroke="#2196d4" stroke-linecap="round" stroke-miterlimit="10" stroke-width="2" fill="none"/><path stroke-linejoin="round" d="M247.32 134.3v21.719h13.704v-32.374H247.32v5.639M254.17 150.88v-3.753M328.34 306.85l13.444-13.444M341.79 306.85l-13.444-13.444M321.61 313.58h26.907v-26.907H321.61v26.907zM395.39 308.7l-17.156-17.156-8.407 8.407" stroke="#2196d4" stroke-linecap="round" stroke-miterlimit="10" stroke-width="2" fill="none"/><path stroke-linejoin="round" d="M391.78 299.62v-12.952h-26.907v26.907h26.907v-3.008" stroke="#2196d4" stroke-linecap="round" stroke-miterlimit="10" stroke-width="2" fill="none"/><path d="M342.13 487.93a2.89 2.89 0 1 0 0-5.778 2.89 2.89 0 0 0 0 5.778" fill="#2196d4"/><path stroke-linejoin="round" d="M342.13 487.93a2.89 2.89 0 1 0 0-5.778 2.89 2.89 0 0 0 0 5.778z" stroke="#2196d4" stroke-miterlimit="10" stroke-width=".5" fill="none"/><path d="M350.86 458.06v.001c-.032.167-2.695 7.58-2.695 7.58l-4.023 4.096v8.316c0 1.889-3.427 3.123-3.828 2.846-.263-.181-6.29-3.922-6.29-3.922l-.639-6.364a1.3 1.3 0 1 1 2.587-.178l.538 4.846 2.995 1.744v-7.264l5.495-5.298 2.805-7.266a1.592 1.592 0 0 1 3.083.568c.001.101.001.146-.028.295" fill="#2196d4"/><path stroke-linejoin="round" d="M350.86 458.06v.001c-.032.167-2.695 7.58-2.695 7.58l-4.023 4.096v8.316c0 1.889-3.427 3.123-3.828 2.846-.263-.181-6.29-3.922-6.29-3.922l-.639-6.364a1.3 1.3 0 1 1 2.587-.178l.538 4.846 2.995 1.744v-7.264l5.495-5.298 2.805-7.266a1.592 1.592 0 0 1 3.083.568c.001.101.001.146-.028.295z" stroke="#2196d4" stroke-miterlimit="10" stroke-width=".5" fill="none"/><path d="M332.78 458.19a1.595 1.595 0 1 1 2.554-1.895l4.877 6.309 1.5 3.317-2.466 2.311-1.823-3.72-4.642-6.322z" fill="#2196d4"/><path stroke-linejoin="round" d="M332.78 458.19a1.595 1.595 0 1 1 2.554-1.895l4.877 6.309 1.5 3.317-2.466 2.311-1.823-3.72-4.642-6.322z" stroke="#2196d4" stroke-miterlimit="10" stroke-width=".5" fill="none"/><path d="M345.31 474.77s-.049-3.582 0-3.508c.043.064 1.803-1.397 2.257-1.775.033-.031.068-.06.104-.087l.001-.001a1.3 1.3 0 0 1 2.078 1.04c0 .484-.263.783-.657 1.129l-3.783 3.202z" fill="#2196d4"/><path stroke-linejoin="round" d="M345.31 474.77s-.049-3.582 0-3.508c.043.064 1.803-1.397 2.257-1.775.033-.031.068-.06.104-.087l.001-.001a1.3 1.3 0 0 1 2.078 1.04c0 .484-.263.783-.657 1.129l-3.783 3.202z" stroke="#2196d4" stroke-miterlimit="10" stroke-width=".5" fill="none"/></g><text transform="matrix(1.25 0 0 1.25 299.15 660.675)" font-size="12.965" font-family="Roboto" fill="#2b2b2a"><tspan y="0" x="0 8.4398899 15.920406 21.352531 28.833048 35.885735 43.379215 53.439671 56.648384 63.649212">Сигналы к </tspan><tspan y="15.557" x="-9.8659849 -2.385468 4.3949656 11.875482 19.148567 26.201254 33.603985 41.097466 47.968651 55.449165 62.929684 73.508713">исправлению </tspan><tspan y="31.115" x="3.6689534 10.449387 17.929903 24.228058 30.266922 37.319611 44.994595 52.475109">ситуации</tspan><tspan y="0" x="-216.3775 -208.30063 -200.91086 -193.50813 -186.01465 -179.14346 -172.10374 -165.23256 -157.75203 -150.27151">Вовлечение</tspan><tspan y="15.557" x="-229.35497 -221.96521 -214.79584 -207.92465 -200.44414 -194.01375 -190.79855 -184.01811 -178.05574 -170.66597 -163.39288 -156.00313 -148.52261 -145.31389 -137.83337 -130.44362">обеих сторон по </tspan><tspan y="31.115" x="-220.90211 -213.51234 -206.34299 -199.4718 -192.69136 -185.21085 -178.33966 -171.29994 -164.42876 -156.94824 -149.46773 -138.88869">обеспечению </tspan><tspan y="46.672" x="-229.45868 -223.49501 -216.10526 -208.70251 -201.64983 -194.37675 -187.32407 -184.10887 -176.62834 -169.57565 -166.36046 -158.87994 -151.58742 -144.09393 -137.19293">товара на полке</tspan></text><g clip-path="url(#z)" transform="matrix(1.25 0 0 -1.25 0 736.57)"><path stroke-linejoin="round" d="M51.123 144.79v19.752h-9.087V144.79M75.971 170.54H42.037v4.407h33.934v-4.407zM75.971 149.73H58.224v14.809h17.747V149.73zM61.111 161.61l3.512-3.512M65.426 161.01l3.512-3.512M48.51 156.4v-2.892" stroke="#2196d4" stroke-linecap="round" stroke-miterlimit="10" stroke-width="2" fill="none"/><path stroke-linejoin="round" d="M81.602 176.81a3.644 3.644 0 0 1-3.644 3.644H40.233a3.644 3.644 0 0 1-3.644-3.644v-28.379a3.644 3.644 0 0 1 3.644-3.644h37.725a3.644 3.644 0 0 1 3.644 3.644v28.379zM40.796 107.26h-4.207v26.854h29.097v-22.722M63.901 107.26H52.156M65.686 111.39v17.182h15.916v-21.314h-6.341M32.95 128.57H21.42M32.95 124.15h-7.133" stroke="#2196d4" stroke-linecap="round" stroke-miterlimit="10" stroke-width="2" fill="none"/><path stroke-linejoin="round" d="M81.602 117.92h-7.958v10.657h7.958V117.92zM40.796 107.26a5.68 5.68 0 1 0 11.36 0 5.68 5.68 0 0 0-11.36 0zM63.901 107.26a5.68 5.68 0 1 0 11.36 0 5.68 5.68 0 0 0-11.36 0z" stroke="#2196d4" stroke-linecap="round" stroke-miterlimit="10" stroke-width="2" fill="none"/><g opacity=".4" clip-path="url(#A)"><path d="M59.441 201.5v156.29" stroke="#244a7b" stroke-miterlimit="10" fill="none"/></g><path d="M62.545 201.5a3.104 3.104 0 1 0-6.207 0 3.104 3.104 0 0 0 6.207 0M59.441 354.1h-6.36l3.18 5.508 3.18 5.508 3.18-5.508 3.18-5.508h-6.36zM430.57 300.79v-6.36l-5.508 3.18-5.508 3.18 5.508 3.18 5.508 3.18v-6.36z" fill="#2196d4"/><g opacity=".4" clip-path="url(#B)"><path d="M213.85 142.91h-78.248" stroke="#244a7b" stroke-miterlimit="10" fill="none"/></g><path d="M213.85 146.02a3.104 3.104 0 1 0 0-6.207 3.104 3.104 0 0 0 0 6.207M139.29 142.91v-6.36l-5.508 3.18-5.508 3.18 5.508 3.18 5.508 3.18v-6.36z" fill="#2196d4"/></g></svg>