<svg xmlns="http://www.w3.org/2000/svg" height="497.57" viewBox="0 0 1151.9287 497.57187" width="1151.9"><defs><clipPath id="a"><path d="M0 595h1040V0H0v595z"/></clipPath><clipPath id="b"><path d="M124.81 241.5h168.33V140.47H124.81V241.5z"/></clipPath><clipPath id="c"><path d="M59.551 460.9h129.05V331.85H59.551V460.9z"/></clipPath><clipPath id="d"><path d="M188.1 396.88h27.969v-1H188.1v1z"/></clipPath><clipPath id="e"><path d="M264.69 396.88h17.81v-1h-17.81v1z"/></clipPath><clipPath id="f"><path d="M757.38 460.9h129.05V331.85H757.38V460.9z"/></clipPath><clipPath id="g"><path d="M292.16 460.9h129.05V331.85H292.16V460.9z"/></clipPath><clipPath id="h"><path d="M524.77 460.9h129.05V331.85H524.77V460.9z"/></clipPath><clipPath id="i"><path d="M762.61 340.05h29.089V287.5H762.61v52.55z"/></clipPath><clipPath id="j"><path d="M215.57 421.19h49.621v-49.62H215.57v49.62z"/></clipPath><clipPath id="k"><path d="M653.17 396.88h95.4v-1h-95.4v1z"/></clipPath><clipPath id="l"><path d="M852.11 340.05h29.089V287.5H852.11v52.55z"/></clipPath><clipPath id="m"><path d="M0 595h1040V0H0v595z"/></clipPath><clipPath id="n"><path d="M0 595h1040V0H0v595z"/></clipPath><clipPath id="o"><path d="M0 595h1040V0H0v595z"/></clipPath><clipPath id="p"><path d="M0 595h1040V0H0v595z"/></clipPath><clipPath id="q"><path d="M292.64 205.49h129.05V76.44H292.64v129.05z"/></clipPath><clipPath id="r"><path d="M420.78 396.88h27.97v-1h-27.97v1z"/></clipPath><clipPath id="s"><path d="M497.37 396.88h17.811v-1H497.37v1z"/></clipPath><clipPath id="t"><path d="M448.25 421.19h49.62v-49.62h-49.62v49.62z"/></clipPath><clipPath id="u"><path d="M852.05 287.34H981.1V158.29H852.05v129.05z"/></clipPath><clipPath id="v"><path d="M0 595h1040V0H0v595z"/></clipPath><clipPath id="w"><path d="M663.54 287.34h129.05V158.29H663.54v129.05z"/></clipPath><clipPath id="x"><path d="M0 595h1040V0H0v595z"/></clipPath><clipPath id="y"><path d="M428.45 182.3h250.69v-41.385H428.45V182.3z"/></clipPath><clipPath id="z"><path d="M0 595h1040V0H0v595z"/></clipPath></defs><g clip-path="url(#a)" transform="matrix(1.25 0 0 -1.25 -74.439 593.13)"><g opacity=".4" clip-path="url(#c)"><path d="M188.1 396.38c0-35.36-28.665-64.024-64.024-64.024-35.36 0-64.025 28.664-64.025 64.024s28.665 64.024 64.025 64.024 64.025-28.664 64.025-64.024z" stroke="#244a7b" stroke-miterlimit="10" fill="none"/></g><g opacity=".4" clip-path="url(#f)"><path d="M885.92 396.38c0-35.36-28.665-64.024-64.024-64.024-35.36 0-64.025 28.664-64.025 64.024s28.665 64.024 64.025 64.024 64.025-28.664 64.025-64.024z" stroke="#244a7b" stroke-miterlimit="10" fill="none"/></g><g opacity=".4" clip-path="url(#g)"><path d="M420.71 396.38c0-35.36-28.665-64.024-64.024-64.024-35.36 0-64.025 28.664-64.025 64.024s28.665 64.024 64.025 64.024 64.025-28.664 64.025-64.024z" stroke="#244a7b" stroke-miterlimit="10" fill="none"/></g><g opacity=".4" clip-path="url(#h)"><path d="M653.32 396.38c0-35.36-28.665-64.024-64.024-64.024-35.36 0-64.025 28.664-64.025 64.024s28.665 64.024 64.025 64.024 64.025-28.664 64.025-64.024z" stroke="#244a7b" stroke-miterlimit="10" fill="none"/></g><path d="M138.17 460.4c0-7.786-6.312-14.098-14.098-14.098-7.785 0-14.097 6.312-14.097 14.098s6.312 14.098 14.097 14.098c7.786 0 14.098-6.312 14.098-14.098" fill="#2196d4"/></g><text font-weight="bold" transform="matrix(1.25 0 0 1.25 73.524 25.155)" font-size="18" font-family="Roboto" fill="#fff"><tspan y="0" x="0">1</tspan></text><g clip-path="url(#m)" transform="matrix(1.25 0 0 -1.25 -74.439 593.13)"><path d="M370.78 460.4c0-7.786-6.312-14.098-14.098-14.098-7.785 0-14.097 6.312-14.097 14.098s6.312 14.098 14.097 14.098c7.786 0 14.098-6.312 14.098-14.098" fill="#2196d4"/></g><text font-weight="bold" transform="matrix(1.25 0 0 1.25 364.286 25.155)" font-size="18" font-family="Roboto" fill="#fff"><tspan y="0" x="0">2</tspan></text><g clip-path="url(#n)" transform="matrix(1.25 0 0 -1.25 -74.439 593.13)"><path d="M603.39 460.4c0-7.786-6.312-14.098-14.098-14.098-7.785 0-14.097 6.312-14.097 14.098s6.312 14.098 14.097 14.098c7.786 0 14.098-6.312 14.098-14.098" fill="#2196d4"/></g><text font-weight="bold" transform="matrix(1.25 0 0 1.25 655.036 25.155)" font-size="18" font-family="Roboto" fill="#fff"><tspan y="0" x="0">3</tspan></text><g clip-path="url(#o)" transform="matrix(1.25 0 0 -1.25 -74.439 593.13)"><path d="M836 460.4c0-7.786-6.312-14.098-14.098-14.098-7.785 0-14.097 6.312-14.097 14.098s6.312 14.098 14.097 14.098c7.786 0 14.098-6.312 14.098-14.098" fill="#2196d4"/></g><text font-weight="bold" transform="matrix(1.25 0 0 1.25 945.799 25.155)" font-size="18" font-family="Roboto" fill="#fff"><tspan y="0" x="0">4</tspan></text><g clip-path="url(#p)" transform="matrix(1.25 0 0 -1.25 -74.439 593.13)"><path stroke-linejoin="round" d="M350.5 419.37a4.91 4.91 0 0 1-4.91 4.91h-18.67a4.91 4.91 0 0 1-4.911-4.91v-5.54H350.5v-29.829M322.01 373.39a4.91 4.91 0 0 1 4.91-4.91h18.67a4.91 4.91 0 0 1 4.911 4.91v5.54H322.01v29.829M329.16 418.89h14.185M333.78 373.8h4.947" stroke="#2196d4" stroke-linecap="round" stroke-miterlimit="10" stroke-width="2" fill="none"/><path d="M373.97 418.81c7.369.849 12.511-4.057 11.832-12.441-.19-2.337-1.156-5.132-2.319-7.196-1.1-1.96-3.581-3.855-2.928-6.343.414-1.574 3.875-2.5 5.125-3.049 3.189-1.401 7.662-3.491 8.782-6.83.29-.861.507-2.957 0-4.27-1.788-4.633-12.868-4.879-19.029-4.879-3.408 0-7.548.053-11.222.732-4.28.791-9.465 2.506-7.928 8.173.693 2.554 3.777 4.424 6.586 5.977.816.452 2.543 1.429 4.147 2.073 1.353.544 3.245 1.038 3.415 2.806.145 1.495-.804 2.295-1.707 3.537-2.066 2.841-4.011 6.712-3.66 11.955.346 5.144 3.548 9.139 8.906 9.755z" stroke="#2196d4" stroke-linecap="round" stroke-miterlimit="10" stroke-width="2" fill="none"/><path stroke-linejoin="round" d="M142.12 371.39h13.287a2.814 2.814 0 0 1 2.814 2.814v42.977a2.814 2.814 0 0 1-2.814 2.814h-5.912" stroke="#2196d4" stroke-linecap="round" stroke-miterlimit="10" stroke-width="2" fill="none"/><path stroke-linejoin="round" d="M98.651 371.39h-5.912a2.814 2.814 0 0 0-2.814 2.814v42.977a2.814 2.814 0 0 0 2.814 2.814H149.5V376.39" stroke="#2196d4" stroke-linecap="round" stroke-miterlimit="10" stroke-width="2" fill="none"/><path stroke-linejoin="round" d="M118.1 371.39H98.652v43.605" stroke="#2196d4" stroke-linecap="round" stroke-miterlimit="10" stroke-width="2" fill="none"/><path d="M122.9 373.29v21.618a2.403 2.403 0 0 0 4.805 0V380.1M127.71 380.1v6.857a2.403 2.403 0 0 0 4.805 0v-9.208" stroke="#2196d4" stroke-linecap="round" stroke-miterlimit="10" stroke-width="2" fill="none"/><path d="M132.51 377.75v6.806a2.403 2.403 0 0 0 4.805 0v-9.114M137.32 375.44v6.714a2.403 2.403 0 0 0 4.805 0v-10.087M118.1 372.07v7.692a2.403 2.403 0 0 0 4.805 0v-6.471" stroke="#2196d4" stroke-linecap="round" stroke-miterlimit="10" stroke-width="2" fill="none"/><path d="M142.12 372.07c0-6.634-5.378-12.013-12.013-12.013-6.634 0-12.013 5.379-12.013 12.013M118.54 394.91a6.771 6.771 0 0 0 13.542 0" stroke="#2196d4" stroke-linecap="round" stroke-miterlimit="10" stroke-width="2" fill="none"/><path d="M114.19 394.91c0 6.137 4.975 11.112 11.112 11.112s11.111-4.975 11.111-11.112" stroke="#2196d4" stroke-linecap="round" stroke-miterlimit="10" stroke-width="2" fill="none"/><path stroke-linejoin="round" d="M153.75 394.09v3.223M622.67 376.79l2.529-2.529a5.239 5.239 0 0 0-7.408-7.409l-13.336 13.336a5.239 5.239 0 0 0 7.409 7.408l7.921-7.921M569.82 395.74c-7.314 7.314-7.314 19.172 0 26.486s19.172 7.314 26.486 0 7.314-19.172 0-26.486-19.172-7.314-26.486 0zM604.46 387.59l-8.15 8.15M557 389.75v-13.646M563.83 382.92h-13.646M572.74 413.6l6.336-6.336M574.17 405.71l7.81-7.81" stroke="#2196d4" stroke-linecap="round" stroke-miterlimit="10" stroke-width="2" fill="none"/><g opacity=".4" clip-path="url(#q)"><path d="M421.18 140.97c0-35.36-28.665-64.024-64.024-64.024-35.36 0-64.025 28.664-64.025 64.024s28.665 64.024 64.025 64.024 64.025-28.664 64.025-64.024z" stroke="#244a7b" stroke-miterlimit="10" fill="none"/></g><g opacity=".4" clip-path="url(#u)"><path d="M980.59 222.81c0-35.36-28.665-64.024-64.024-64.024-35.36 0-64.025 28.664-64.025 64.024s28.665 64.024 64.025 64.024 64.025-28.664 64.025-64.024z" stroke="#244a7b" stroke-miterlimit="10" fill="none"/></g><path d="M866.64 222.81c0-7.786-6.312-14.098-14.098-14.098-7.785 0-14.097 6.312-14.097 14.098s6.312 14.098 14.097 14.098c7.786 0 14.098-6.312 14.098-14.098" fill="#2196d4"/></g><text font-weight="bold" transform="matrix(1.25 0 0 1.25 979.886 320.58)" font-size="14" font-family="Roboto" fill="#fff"><tspan y="0" x="0 8.0360003">5A</tspan></text><g clip-path="url(#v)" transform="matrix(1.25 0 0 -1.25 -74.439 593.13)"><path stroke-linejoin="round" d="M931.7 213.05l-12.582-11.347-3.362-13.876h-9.071v20.581h-11.289l-7.022 6.374v20.962l6.635 8.253h28.589l7.865-8.253M946.77 232.29v-23.876h-15.065v35.589h15.065v-6.199M939.23 214.05v4.126" stroke="#2196d4" stroke-linecap="round" stroke-miterlimit="10" stroke-width="2" fill="none"/><g opacity=".4" clip-path="url(#w)"><path d="M792.09 222.81c0-35.36-28.665-64.024-64.024-64.024-35.36 0-64.025 28.664-64.025 64.024s28.665 64.024 64.025 64.024 64.025-28.664 64.025-64.024z" stroke="#244a7b" stroke-miterlimit="10" fill="none"/></g><path d="M678.79 222.81c0-7.786-6.312-14.098-14.098-14.098-7.785 0-14.097 6.312-14.097 14.098s6.312 14.098 14.097 14.098c7.786 0 14.098-6.312 14.098-14.098" fill="#2196d4"/></g><text font-weight="bold" transform="matrix(1.25 0 0 1.25 745.074 320.58)" font-size="14" font-family="Roboto" fill="#fff"><tspan y="0" x="0 8.0360003">5B</tspan></text><g clip-path="url(#x)" transform="matrix(1.25 0 0 -1.25 -74.439 593.13)"><path stroke-linejoin="round" d="M716.94 232.57l12.582 11.347 3.362 13.876h9.071v-20.581h11.289l7.022-6.374v-20.962l-6.635-8.253h-28.589l-7.865 8.253M701.87 213.34v23.876h15.066v-35.589H701.87v6.199M709.41 231.57v-4.126M790.94 403.03l14.78-14.78M805.72 403.03l-14.78-14.78M783.54 410.43h29.58v-29.58h-29.58v29.58zM864.65 405.07l-18.86-18.86-9.242 9.242" stroke="#2196d4" stroke-linecap="round" stroke-miterlimit="10" stroke-width="2" fill="none"/><path stroke-linejoin="round" d="M860.68 395.09v-14.238H831.1v29.58h29.58v-3.308" stroke="#2196d4" stroke-linecap="round" stroke-miterlimit="10" stroke-width="2" fill="none"/></g><g clip-path="url(#z)" transform="matrix(1.25 0 0 -1.25 -74.439 593.13)"><path stroke-linejoin="round" d="M348.4 142.43v21.714h-9.989V142.43M375.71 170.74h-37.305v4.845h37.305v-4.845zM375.71 147.87h-19.509v16.28h19.509v-16.28zM359.38 160.93l3.861-3.861M364.12 160.27l3.861-3.861M345.52 155.2v-3.179" stroke="#2196d4" stroke-linecap="round" stroke-miterlimit="10" stroke-width="2" fill="none"/><path stroke-linejoin="round" d="M381.9 177.64a4.006 4.006 0 0 1-4.006 4.006h-41.473a4.006 4.006 0 0 1-4.005-4.006v-31.198a4.006 4.006 0 0 1 4.005-4.006h41.473a4.006 4.006 0 0 1 4.006 4.006v31.198zM337.04 101.18h-4.625v29.521h31.988v-24.978M362.44 101.18h-12.912" stroke="#2196d4" stroke-linecap="round" stroke-miterlimit="10" stroke-width="2" fill="none"/><path stroke-linejoin="round" d="M364.4 105.72v18.889h17.497v-23.432h-6.971M328.42 124.61h-12.675M328.42 119.75h-7.842" stroke="#2196d4" stroke-linecap="round" stroke-miterlimit="10" stroke-width="2" fill="none"/><path stroke-linejoin="round" d="M381.9 112.89h-8.748v11.716h8.748V112.89zM337.04 101.18a6.244 6.244 0 1 0 12.488 0 6.244 6.244 0 0 0-12.488 0zM362.44 101.18a6.244 6.244 0 1 0 12.488 0 6.244 6.244 0 0 0-12.488 0z" stroke="#2196d4" stroke-linecap="round" stroke-miterlimit="10" stroke-width="2" fill="none"/></g></svg>