<svg xmlns="http://www.w3.org/2000/svg" width="1151.929" height="497.572" viewBox="0 0 1151.9287 497.57187"><defs><clipPath id="a"><path d="M0 595h1040V0H0v595z"/></clipPath><clipPath id="b"><path d="M124.807 241.5h168.328V140.467H124.807V241.5z"/></clipPath><clipPath id="c"><path d="M59.551 460.902H188.6V331.854H59.551v129.048z"/></clipPath><clipPath id="d"><path d="M188.1 396.878h27.969v-1H188.1v1z"/></clipPath><clipPath id="e"><path d="M264.69 396.878h17.81v-1h-17.81v1z"/></clipPath><clipPath id="f"><path d="M757.376 460.902h129.049V331.854H757.376v129.048z"/></clipPath><clipPath id="g"><path d="M292.159 460.902h129.049V331.854H292.159v129.048z"/></clipPath><clipPath id="h"><path d="M524.768 460.902h129.048V331.854H524.768v129.048z"/></clipPath><clipPath id="i"><path d="M762.606 340.046h29.089v-52.55h-29.089v52.55z"/></clipPath><clipPath id="j"><path d="M215.569 421.188h49.621v-49.62h-49.621v49.62z"/></clipPath><clipPath id="k"><path d="M653.167 396.878h95.4v-1h-95.4v1z"/></clipPath><clipPath id="l"><path d="M852.106 340.046h29.089v-52.55h-29.089v52.55z"/></clipPath><clipPath id="m"><path d="M0 595h1040V0H0v595z"/></clipPath><clipPath id="n"><path d="M0 595h1040V0H0v595z"/></clipPath><clipPath id="o"><path d="M0 595h1040V0H0v595z"/></clipPath><clipPath id="p"><path d="M0 595h1040V0H0v595z"/></clipPath><clipPath id="q"><path d="M292.635 205.491h129.049V76.443H292.635V205.49z"/></clipPath><clipPath id="r"><path d="M420.782 396.878h27.97v-1h-27.97v1z"/></clipPath><clipPath id="s"><path d="M497.372 396.878h17.811v-1h-17.811v1z"/></clipPath><clipPath id="t"><path d="M448.252 421.188h49.62v-49.62h-49.62v49.62z"/></clipPath><clipPath id="u"><path d="M852.046 287.337h129.048V158.288H852.046v129.049z"/></clipPath><clipPath id="v"><path d="M0 595h1040V0H0v595z"/></clipPath><clipPath id="w"><path d="M663.545 287.337h129.049V158.288H663.545v129.049z"/></clipPath><clipPath id="x"><path d="M0 595h1040V0H0v595z"/></clipPath><clipPath id="y"><path d="M428.448 182.295h250.693V140.91H428.448v41.385z"/></clipPath><clipPath id="z"><path d="M0 595h1040V0H0v595z"/></clipPath></defs><g clip-path="url(#a)" transform="matrix(1.25 0 0 -1.25 -74.439 593.125)"><g clip-path="url(#b)" opacity=".4"><path d="M293.135 140.967H125.307V241.5" fill="none" stroke="#244a7b" stroke-miterlimit="10"/></g><path d="M128.72 140.967a3.413 3.413 0 1 0-6.826 0 3.413 3.413 0 0 0 6.825 0" fill="#2196d4"/><g clip-path="url(#c)" opacity=".4"><path d="M188.1 396.378c0-35.36-28.665-64.024-64.024-64.024-35.36 0-64.025 28.664-64.025 64.024s28.665 64.024 64.025 64.024c35.359 0 64.024-28.664 64.024-64.024z" fill="none" stroke="#244a7b" stroke-miterlimit="10"/></g><g clip-path="url(#d)" opacity=".4"><path d="M188.1 396.378h27.969" fill="none" stroke="#244a7b" stroke-miterlimit="10"/></g><g clip-path="url(#e)" opacity=".4"><path d="M264.69 396.378h17.81" fill="none" stroke="#244a7b" stroke-miterlimit="10"/></g><g clip-path="url(#f)" opacity=".4"><path d="M885.925 396.378c0-35.36-28.665-64.024-64.024-64.024-35.36 0-64.025 28.664-64.025 64.024s28.665 64.024 64.025 64.024c35.359 0 64.024-28.664 64.024-64.024z" fill="none" stroke="#244a7b" stroke-miterlimit="10"/></g><g clip-path="url(#g)" opacity=".4"><path d="M420.708 396.378c0-35.36-28.665-64.024-64.024-64.024-35.36 0-64.025 28.664-64.025 64.024s28.665 64.024 64.025 64.024c35.36 0 64.024-28.664 64.024-64.024z" fill="none" stroke="#244a7b" stroke-miterlimit="10"/></g><g clip-path="url(#h)" opacity=".4"><path d="M653.316 396.378c0-35.36-28.665-64.024-64.024-64.024-35.36 0-64.025 28.664-64.025 64.024s28.665 64.024 64.025 64.024c35.36 0 64.024-28.664 64.024-64.024z" fill="none" stroke="#244a7b" stroke-miterlimit="10"/></g><g clip-path="url(#i)" opacity=".4"><path d="M791.255 339.808l-28.21-52.074" fill="none" stroke="#244a7b" stroke-miterlimit="10"/></g><g clip-path="url(#j)" opacity=".4"><path d="M264.69 396.378c0-13.426-10.884-24.31-24.31-24.31-13.427 0-24.311 10.884-24.311 24.31 0 13.426 10.884 24.31 24.31 24.31 13.427 0 24.31-10.884 24.31-24.31z" fill="none" stroke="#244a7b" stroke-miterlimit="10"/></g><g clip-path="url(#k)" opacity=".4"><path d="M653.167 396.378h95.4" fill="none" stroke="#244a7b" stroke-miterlimit="10"/></g><g><g clip-path="url(#l)" opacity=".4"><path d="M852.546 339.808l28.21-52.074" fill="none" stroke="#244a7b" stroke-miterlimit="10"/></g></g><g><path d="M138.173 460.402c0-7.786-6.312-14.098-14.098-14.098-7.785 0-14.097 6.312-14.097 14.098 0 7.786 6.312 14.098 14.097 14.098 7.786 0 14.098-6.312 14.098-14.098" fill="#2196d4"/></g><g><path d="M191.513 396.378a3.413 3.413 0 1 0-6.826 0 3.413 3.413 0 0 0 6.826 0" fill="#2196d4"/></g><g><path d="M656.588 396.378a3.413 3.413 0 1 0-6.826 0 3.413 3.413 0 0 0 6.826 0" fill="#2196d4"/></g><g><path d="M794.668 339.808a3.413 3.413 0 1 0-6.826 0 3.413 3.413 0 0 0 6.826 0" fill="#2196d4"/></g><g><path d="M855.958 339.808a3.413 3.413 0 1 0-6.825 0 3.413 3.413 0 0 0 6.825 0" fill="#2196d4"/></g><g><path d="M278.5 396.378v5.174l4.481-2.587 4.481-2.587-4.481-2.587-4.481-2.587v5.174z" fill="#2196d4"/></g><g><path d="M744.613 396.378v5.174l4.48-2.587 4.482-2.587-4.481-2.587-4.481-2.587v5.174z" fill="#2196d4"/></g><g><path d="M762.045 292.012v5.174l4.481-2.587 4.481-2.587-4.48-2.587-4.482-2.587v5.174z" fill="#2196d4"/></g><g><path d="M881.755 291.909v-5.174l-4.48 2.587-4.482 2.587 4.481 2.587 4.481 2.587v-5.175z" fill="#2196d4"/></g></g><text transform="matrix(1.25 0 0 1.25 73.52 25.148)" style="-inkscape-font-specification:Roboto-Bold" font-weight="700" font-size="18" font-family="Roboto" fill="#fff"><tspan x="0" y="0">1</tspan></text><g clip-path="url(#m)" transform="matrix(1.25 0 0 -1.25 -74.439 593.125)"><path d="M370.781 460.402c0-7.786-6.312-14.098-14.098-14.098-7.785 0-14.097 6.312-14.097 14.098 0 7.786 6.312 14.098 14.097 14.098 7.786 0 14.098-6.312 14.098-14.098" fill="#2196d4"/></g><text transform="matrix(1.25 0 0 1.25 364.28 25.148)" style="-inkscape-font-specification:Roboto-Bold" font-weight="700" font-size="18" font-family="Roboto" fill="#fff"><tspan x="0" y="0">2</tspan></text><g clip-path="url(#n)" transform="matrix(1.25 0 0 -1.25 -74.439 593.125)"><path d="M603.39 460.402c0-7.786-6.312-14.098-14.098-14.098-7.785 0-14.097 6.312-14.097 14.098 0 7.786 6.312 14.098 14.097 14.098 7.786 0 14.098-6.312 14.098-14.098" fill="#2196d4"/></g><text transform="matrix(1.25 0 0 1.25 655.04 25.148)" style="-inkscape-font-specification:Roboto-Bold" font-weight="700" font-size="18" font-family="Roboto" fill="#fff"><tspan x="0" y="0">3</tspan></text><g clip-path="url(#o)" transform="matrix(1.25 0 0 -1.25 -74.439 593.125)"><path d="M835.998 460.402c0-7.786-6.312-14.098-14.098-14.098-7.785 0-14.097 6.312-14.097 14.098 0 7.786 6.312 14.098 14.097 14.098 7.786 0 14.098-6.312 14.098-14.098" fill="#2196d4"/></g><text transform="matrix(1.25 0 0 1.25 945.801 25.148)" style="-inkscape-font-specification:Roboto-Bold" font-weight="700" font-size="18" font-family="Roboto" fill="#fff"><tspan x="0" y="0">4</tspan></text><g clip-path="url(#p)" transform="matrix(1.25 0 0 -1.25 -74.439 593.125)"><path d="M350.496 419.366a4.91 4.91 0 0 1-4.91 4.91h-18.67a4.91 4.91 0 0 1-4.91-4.91v-5.54h28.49v-29.829M322.005 373.39a4.91 4.91 0 0 1 4.91-4.91h18.67a4.91 4.91 0 0 1 4.912 4.91v5.54h-28.491v29.829M329.158 418.89h14.185M333.777 373.804h4.947" fill="none" stroke="#2196d4" stroke-width="2" stroke-linecap="round" stroke-linejoin="round" stroke-miterlimit="10"/><path d="M373.973 418.812c7.369.849 12.51-4.057 11.832-12.441-.19-2.337-1.156-5.132-2.32-7.196-1.1-1.96-3.58-3.855-2.927-6.343.414-1.574 3.875-2.5 5.125-3.049 3.189-1.401 7.662-3.491 8.782-6.83.29-.861.507-2.957 0-4.27-1.788-4.633-12.868-4.879-19.03-4.879-3.407 0-7.547.053-11.221.732-4.28.791-9.465 2.506-7.928 8.173.693 2.554 3.777 4.424 6.586 5.977.816.452 2.543 1.429 4.147 2.073 1.353.544 3.245 1.038 3.415 2.806.145 1.495-.804 2.295-1.707 3.537-2.066 2.841-4.011 6.712-3.66 11.955.346 5.144 3.548 9.139 8.906 9.755z" fill="none" stroke="#2196d4" stroke-width="2" stroke-linecap="round" stroke-miterlimit="10"/><path d="M142.125 371.395h13.287a2.814 2.814 0 0 1 2.814 2.814v42.977a2.814 2.814 0 0 1-2.814 2.814H149.5" fill="none" stroke="#2196d4" stroke-width="2" stroke-linecap="round" stroke-linejoin="round" stroke-miterlimit="10"/><path d="M98.65 371.395H92.74a2.814 2.814 0 0 0-2.814 2.814v42.977A2.814 2.814 0 0 0 92.739 420H149.499v-43.605" fill="none" stroke="#2196d4" stroke-width="2" stroke-linecap="round" stroke-linejoin="round" stroke-miterlimit="10"/><path d="M118.099 371.395H98.65V415" fill="none" stroke="#2196d4" stroke-width="2" stroke-linecap="round" stroke-linejoin="round" stroke-miterlimit="10"/><path d="M122.904 373.289v21.618a2.403 2.403 0 0 0 4.805 0v-14.808M127.71 380.1v6.856a2.403 2.403 0 0 0 4.804 0v-9.208M132.514 377.748v6.806a2.403 2.403 0 0 0 4.805 0v-9.114M137.32 375.44v6.715a2.403 2.403 0 0 0 4.804 0v-10.087M118.099 372.068v7.692a2.403 2.403 0 0 0 4.805 0v-6.471M142.125 372.068c0-6.634-5.378-12.013-12.013-12.013-6.634 0-12.013 5.379-12.013 12.013M118.536 394.906a6.771 6.771 0 0 0 13.542 0" fill="none" stroke="#2196d4" stroke-width="2" stroke-linecap="round" stroke-miterlimit="10"/><path d="M114.195 394.906c0 6.137 4.975 11.112 11.112 11.112 6.137 0 11.11-4.975 11.11-11.112" fill="none" stroke="#2196d4" stroke-width="2" stroke-linecap="round" stroke-miterlimit="10"/><path d="M153.75 394.086v3.223M622.673 376.787l2.53-2.53a5.239 5.239 0 0 0-7.409-7.408l-13.336 13.336a5.239 5.239 0 0 0 7.409 7.408l7.921-7.921M569.823 395.743c-7.314 7.314-7.314 19.172 0 26.486s19.172 7.314 26.486 0 7.314-19.172 0-26.486-19.172-7.314-26.486 0zM604.458 387.593l-8.15 8.15M557.003 389.746V376.1M563.826 382.923H550.18M572.735 413.598l6.336-6.336M574.171 405.711l7.81-7.81" fill="none" stroke="#2196d4" stroke-width="2" stroke-linecap="round" stroke-linejoin="round" stroke-miterlimit="10"/><g clip-path="url(#q)" opacity=".4"><path d="M421.183 140.967c0-35.36-28.665-64.024-64.024-64.024-35.36 0-64.025 28.664-64.025 64.024S321.8 204.99 357.16 204.99c35.36 0 64.024-28.664 64.024-64.024z" fill="none" stroke="#244a7b" stroke-miterlimit="10"/></g><path d="M252.509 388.491H228.25v15.774h24.259v-15.774z" fill="none" stroke="#2196d4" stroke-width="2" stroke-linecap="round" stroke-linejoin="round" stroke-miterlimit="10"/><path d="M228.25 404.265l12.13-9.887 12.129 9.887M237.962 395.95l-9.712-7.524M252.51 388.426l-9.712 7.524" fill="none" stroke="#2196d4" stroke-linecap="round" stroke-linejoin="round" stroke-miterlimit="10"/><g clip-path="url(#r)" opacity=".4"><path d="M420.782 396.378h27.97" fill="none" stroke="#244a7b" stroke-miterlimit="10"/></g><g clip-path="url(#s)" opacity=".4"><path d="M497.372 396.378h17.81" fill="none" stroke="#244a7b" stroke-miterlimit="10"/></g><g clip-path="url(#t)" opacity=".4"><path d="M497.372 396.378c0-13.426-10.884-24.31-24.31-24.31-13.427 0-24.31 10.884-24.31 24.31 0 13.426 10.883 24.31 24.31 24.31 13.426 0 24.31-10.884 24.31-24.31z" fill="none" stroke="#244a7b" stroke-miterlimit="10"/></g><g><path d="M424.195 396.378a3.413 3.413 0 1 0-6.826 0 3.413 3.413 0 0 0 6.826 0" fill="#2196d4"/></g><g><path d="M511.183 396.378v5.174l4.48-2.587 4.482-2.587-4.481-2.587-4.481-2.587v5.174z" fill="#2196d4"/></g><g><g clip-path="url(#u)" opacity=".4"><path d="M980.594 222.813c0-35.36-28.665-64.024-64.024-64.024-35.36 0-64.025 28.664-64.025 64.024s28.665 64.024 64.025 64.024c35.36 0 64.024-28.664 64.024-64.024z" fill="none" stroke="#244a7b" stroke-miterlimit="10"/></g></g><g><path d="M866.643 222.813c0-7.786-6.312-14.098-14.098-14.098-7.785 0-14.097 6.312-14.097 14.098 0 7.786 6.312 14.098 14.097 14.098 7.786 0 14.098-6.312 14.098-14.098" fill="#2196d4"/></g></g><text transform="matrix(1.25 0 0 1.25 979.89 320.574)" style="-inkscape-font-specification:Roboto-Bold" font-weight="700" font-size="14" font-family="Roboto" fill="#fff"><tspan x="0 8.0360003" y="0">5A</tspan></text><g clip-path="url(#v)" transform="matrix(1.25 0 0 -1.25 -74.439 593.125)"><path d="M931.7 213.053l-12.582-11.347-3.362-13.876h-9.07v20.581h-11.29l-7.022 6.374v20.962L895.01 244h28.59l7.864-8.253M946.766 232.287v-23.876H931.7v35.59h15.065v-6.2M939.233 214.054v4.126" fill="none" stroke="#2196d4" stroke-width="2" stroke-linecap="round" stroke-linejoin="round" stroke-miterlimit="10"/><g clip-path="url(#w)" opacity=".4"><path d="M792.094 222.813c0-35.36-28.665-64.024-64.024-64.024-35.36 0-64.025 28.664-64.025 64.024s28.665 64.024 64.025 64.024c35.359 0 64.024-28.664 64.024-64.024z" fill="none" stroke="#244a7b" stroke-miterlimit="10"/></g><g><path d="M678.788 222.813c0-7.786-6.312-14.098-14.098-14.098-7.785 0-14.097 6.312-14.097 14.098 0 7.786 6.312 14.098 14.097 14.098 7.786 0 14.098-6.312 14.098-14.098" fill="#2196d4"/></g></g><text transform="matrix(1.25 0 0 1.25 745.07 320.574)" style="-inkscape-font-specification:Roboto-Bold" font-weight="700" font-size="14" font-family="Roboto" fill="#fff"><tspan x="0 8.0360003" y="0">5B</tspan></text><g clip-path="url(#x)" transform="matrix(1.25 0 0 -1.25 -74.439 593.125)"><path d="M716.94 232.572l12.581 11.347 3.362 13.876h9.071v-20.58h11.29l7.021-6.375v-20.962l-6.635-8.253h-28.589l-7.865 8.253M701.874 213.338v23.876h15.066v-35.589h-15.066v6.2M709.406 231.571v-4.126M790.943 403.03l14.78-14.78M805.723 403.03l-14.78-14.78M783.543 410.43h29.58v-29.58h-29.58v29.58zM864.65 405.07l-18.86-18.86-9.242 9.242" fill="none" stroke="#2196d4" stroke-width="2" stroke-linecap="round" stroke-linejoin="round" stroke-miterlimit="10"/><path d="M860.685 395.088V380.85h-29.58v29.58h29.58v-3.308" fill="none" stroke="#2196d4" stroke-width="2" stroke-linecap="round" stroke-linejoin="round" stroke-miterlimit="10"/><g clip-path="url(#y)" opacity=".4"><path d="M678.788 181.942l-40.531-40.531H428.449" fill="none" stroke="#244a7b" stroke-miterlimit="10"/></g><path d="M682.2 181.942a3.413 3.413 0 1 0-6.825 0 3.413 3.413 0 0 0 6.826 0M641.67 141.41a3.413 3.413 0 1 0-6.827 0 3.413 3.413 0 0 0 6.826 0M296.668 140.967a3.413 3.413 0 1 0-6.826 0 3.413 3.413 0 0 0 6.826 0M125.307 237.445h-6.992l3.496 6.055 3.496 6.055 3.496-6.055 3.496-6.055h-6.992zM434.18 141.41v-5.174l-4.481 2.587-4.481 2.587 4.48 2.587 4.482 2.587v-5.174zM473.381 414.635a3.175 3.175 0 1 0 0-6.35 3.175 3.175 0 0 0 0 6.35" fill="#2196d4"/><path d="M473.381 414.635a3.175 3.175 0 1 0 0-6.35 3.175 3.175 0 0 0 0 6.35z" fill="none" stroke="#2196d4" stroke-width=".5" stroke-linejoin="round" stroke-miterlimit="10"/><path d="M482.978 381.8v.002c-.035.183-2.963 8.332-2.963 8.332l-4.423 4.504v9.142c0 2.077-3.767 3.433-4.207 3.129-.289-.2-6.915-4.312-6.915-4.312l-.703-6.996a1.43 1.43 0 1 1 2.845-.196l.591 5.328 3.292 1.917v-7.985l6.041-5.825 3.083-7.988a1.753 1.753 0 0 1 3.39.625c0 .11 0 .16-.03.324" fill="#2196d4"/><path d="M482.978 381.8v.002c-.035.183-2.963 8.332-2.963 8.332l-4.423 4.504v9.142c0 2.077-3.767 3.433-4.207 3.129-.289-.2-6.915-4.312-6.915-4.312l-.703-6.996a1.43 1.43 0 1 1 2.845-.196l.591 5.328 3.292 1.917v-7.985l6.041-5.825 3.083-7.988a1.753 1.753 0 0 1 3.39.625c0 .11 0 .16-.03.324z" fill="none" stroke="#2196d4" stroke-width=".5" stroke-linejoin="round" stroke-miterlimit="10"/><path d="M463.093 381.939a1.753 1.753 0 1 1 2.807-2.083l5.362 6.936 1.65 3.646-2.712 2.541-2.004-4.09-5.103-6.95z" fill="#2196d4"/><path d="M463.093 381.939a1.753 1.753 0 1 1 2.807-2.083l5.362 6.936 1.65 3.646-2.712 2.541-2.004-4.09-5.103-6.95z" fill="none" stroke="#2196d4" stroke-width=".5" stroke-linejoin="round" stroke-miterlimit="10"/><path d="M476.873 400.166s-.054-3.938 0-3.857c.047.071 1.983-1.535 2.481-1.95a1.18 1.18 0 0 1 .115-.097h.001a1.43 1.43 0 0 1 2.284 1.144c0 .531-.289.86-.723 1.24l-4.158 3.52z" fill="#2196d4"/><g><path d="M476.873 400.166s-.054-3.938 0-3.857c.047.071 1.983-1.535 2.481-1.95a1.18 1.18 0 0 1 .115-.097h.001a1.43 1.43 0 0 1 2.284 1.144c0 .531-.289.86-.723 1.24l-4.158 3.52z" fill="none" stroke="#2196d4" stroke-width=".5" stroke-linejoin="round" stroke-miterlimit="10"/></g></g><g clip-path="url(#z)" transform="matrix(1.25 0 0 -1.25 -74.439 593.125)"><path d="M348.395 142.434v21.714h-9.989v-21.714M375.711 170.742h-37.305v4.845h37.305v-4.845zM375.711 147.868h-19.509v16.28h19.509v-16.28zM359.375 160.926l3.861-3.861M364.119 160.27l3.86-3.861M345.522 155.198v-3.18" fill="none" stroke="#2196d4" stroke-width="2" stroke-linecap="round" stroke-linejoin="round" stroke-miterlimit="10"/><path d="M381.901 177.637a4.006 4.006 0 0 1-4.006 4.006h-41.473a4.006 4.006 0 0 1-4.005-4.006V146.44a4.006 4.006 0 0 1 4.005-4.006h41.473a4.006 4.006 0 0 1 4.006 4.006v31.198zM337.042 101.177h-4.625v29.52h31.988V105.72M362.442 101.177H349.53" fill="none" stroke="#2196d4" stroke-width="2" stroke-linecap="round" stroke-linejoin="round" stroke-miterlimit="10"/><path d="M364.404 105.72v18.889h17.497v-23.432h-6.97M328.417 124.609h-12.675M328.417 119.75h-7.842" fill="none" stroke="#2196d4" stroke-width="2" stroke-linecap="round" stroke-linejoin="round" stroke-miterlimit="10"/><path d="M381.901 112.893h-8.748v11.716h8.748v-11.716zM337.042 101.177a6.244 6.244 0 1 0 12.488 0 6.244 6.244 0 0 0-12.488 0zM362.442 101.177a6.244 6.244 0 1 0 12.488 0 6.244 6.244 0 0 0-12.488 0z" fill="none" stroke="#2196d4" stroke-width="2" stroke-linecap="round" stroke-linejoin="round" stroke-miterlimit="10"/></g></svg>