<?xml version="1.0" encoding="UTF-8" standalone="no"?>
<!-- Created with Inkscape (http://www.inkscape.org/) -->

<svg
   xmlns:dc="http://purl.org/dc/elements/1.1/"
   xmlns:cc="http://creativecommons.org/ns#"
   xmlns:rdf="http://www.w3.org/1999/02/22-rdf-syntax-ns#"
   xmlns:svg="http://www.w3.org/2000/svg"
   xmlns="http://www.w3.org/2000/svg"
   xmlns:sodipodi="http://sodipodi.sourceforge.net/DTD/sodipodi-0.dtd"
   xmlns:inkscape="http://www.inkscape.org/namespaces/inkscape"
   id="svg4096"
   height="54.326309"
   width="284.20715"
   version="1.1"
   viewBox="0 0 284.20693 54.325938"
   inkscape:version="0.91 r13725"
   sodipodi:docname="arrow-4-new.svg">
  <defs
     id="defs3347" />
  <sodipodi:namedview
     pagecolor="#ffffff"
     bordercolor="#666666"
     borderopacity="1"
     objecttolerance="10"
     gridtolerance="10"
     guidetolerance="10"
     inkscape:pageopacity="0"
     inkscape:pageshadow="2"
     inkscape:window-width="1920"
     inkscape:window-height="1018"
     id="namedview3345"
     showgrid="false"
     units="px"
     inkscape:zoom="3.8852127"
     inkscape:cx="167.57272"
     inkscape:cy="17.41546"
     inkscape:window-x="1358"
     inkscape:window-y="-8"
     inkscape:window-maximized="1"
     inkscape:current-layer="svg4096"
     fit-margin-top="0"
     fit-margin-left="0"
     fit-margin-right="0"
     fit-margin-bottom="0" />
  <metadata
     id="metadata4101">
    <rdf:RDF>
      <cc:Work
         rdf:about="">
        <dc:format>image/svg+xml</dc:format>
        <dc:type
           rdf:resource="http://purl.org/dc/dcmitype/StillImage" />
        <dc:title></dc:title>
      </cc:Work>
    </rdf:RDF>
  </metadata>
  <g
     id="layer1"
     transform="matrix(0.88473936,0,0,0.88473936,-263.61482,-274.47622)">
    <path
       id="path3952"
       d="m 614.92,314.5 -50.664,50.664 -262.26,0"
       stroke-miterlimit="10"
       inkscape:connector-curvature="0"
       style="opacity:0.39999007;fill:none;stroke:#244a7b;stroke-width:1.25;stroke-miterlimit:10" />
    <g
       id="g3340"
       style="fill:#2196d4">
      <path
         id="path3956"
         d="m 619.19,314.5 c 0,2.3562 -1.91,4.2662 -4.2662,4.2662 -2.3562,0 -4.2662,-1.91 -4.2662,-4.2662 0,-2.3562 1.91,-4.2662 4.2662,-4.2662 2.3562,0 4.2662,1.91 4.2662,4.2662"
         inkscape:connector-curvature="0" />
      <path
         id="path3960"
         d="m 568.52,365.17 c 0,2.3562 -1.91,4.2662 -4.2662,4.2662 -2.3562,0 -4.2662,-1.91 -4.2662,-4.2662 0,-2.3562 1.91,-4.2662 4.2662,-4.2662 2.3562,0 4.2662,1.91 4.2662,4.2662"
         inkscape:connector-curvature="0" />
      <path
         id="path3972"
         d="m 309.16,365.17 0,6.4675 -5.6012,-3.2338 -5.6012,-3.2338 5.6012,-3.2338 5.6012,-3.2338 0,6.4675 z"
         inkscape:connector-curvature="0" />
    </g>
  </g>
</svg>
