<?xml version="1.0" encoding="UTF-8" standalone="no"?>
<!-- Created with Inkscape (http://www.inkscape.org/) -->
<svg id="svg4096" xmlns:rdf="http://www.w3.org/1999/02/22-rdf-syntax-ns#" xmlns="http://www.w3.org/2000/svg" height="17.328mm" width="90.658mm" version="1.1" xmlns:cc="http://creativecommons.org/ns#" xmlns:dc="http://purl.org/dc/elements/1.1/" viewBox="0 0 321.22888 61.398003">
 <metadata id="metadata4101">
  <rdf:RDF>
   <cc:Work rdf:about="">
    <dc:format>image/svg+xml</dc:format>
    <dc:type rdf:resource="http://purl.org/dc/dcmitype/StillImage"/>
    <dc:title/>
   </cc:Work>
  </rdf:RDF>
 </metadata>
 <g id="layer1" transform="translate(-297.96 -310.23)">
  <path id="path3952" opacity=".39999" d="m614.92 314.5-50.664 50.664h-262.26" stroke="#244a7b" stroke-miterlimit="10" stroke-width="1.25" fill="none"/>
  <g fill="#2196d4">
   <path id="path3956" d="m619.19 314.5c0 2.3562-1.91 4.2662-4.2662 4.2662s-4.2662-1.91-4.2662-4.2662 1.91-4.2662 4.2662-4.2662 4.2662 1.91 4.2662 4.2662"/>
   <path id="path3960" d="m568.52 365.17c0 2.3562-1.91 4.2662-4.2662 4.2662s-4.2662-1.91-4.2662-4.2662 1.91-4.2662 4.2662-4.2662 4.2662 1.91 4.2662 4.2662"/>
   <path id="path3972" d="m309.16 365.17v6.4675l-5.6012-3.2338-5.6012-3.2338 5.6012-3.2338 5.6012-3.2338v6.4675z"/>
  </g>
 </g>
</svg>
