<?xml version="1.0" encoding="UTF-8" standalone="no"?>
<!-- Created with Inkscape (http://www.inkscape.org/) -->
<svg id="svg4096" xmlns:rdf="http://www.w3.org/1999/02/22-rdf-syntax-ns#" xmlns="http://www.w3.org/2000/svg" height="39.511mm" width="62.919mm" version="1.1" xmlns:cc="http://creativecommons.org/ns#" xmlns:dc="http://purl.org/dc/elements/1.1/" viewBox="0 0 222.942 140.00113">
 <metadata id="metadata4101">
  <rdf:RDF>
   <cc:Work rdf:about="">
    <dc:format>image/svg+xml</dc:format>
    <dc:type rdf:resource="http://purl.org/dc/dcmitype/StillImage"/>
    <dc:title/>
   </cc:Work>
  </rdf:RDF>
 </metadata>
 <g id="layer1" transform="translate(-189.55 -322.73)">
  <path id="path3368" opacity=".39999" d="m408.08 458.47h-209.78v-125.67" stroke="#244a7b" stroke-miterlimit="10" stroke-width="1.25" fill="none"/>
  <g fill="#2196d4">
   <path id="path3372" d="m202.56 458.47c0 2.3562-1.91 4.2662-4.2662 4.2662s-4.2662-1.91-4.2662-4.2662 1.91-4.2662 4.2662-4.2662 4.2662 1.91 4.2662 4.2662"/>
   <path id="path3964" d="m412.5 458.47c0 2.3562-1.91 4.2662-4.2662 4.2662s-4.2662-1.91-4.2662-4.2662 1.91-4.2662 4.2662-4.2662 4.2662 1.91 4.2662 4.2662"/>
   <path id="path3968" d="m198.29 337.87h-8.74l4.37-7.5688 4.37-7.5688 4.37 7.5688 4.37 7.5688h-8.74z"/>
  </g>
 </g>
</svg>
