<?xml version="1.0" encoding="UTF-8" standalone="no"?>
<!-- Created with Inkscape (http://www.inkscape.org/) -->
<svg id="svg4096" xmlns:rdf="http://www.w3.org/1999/02/22-rdf-syntax-ns#" xmlns="http://www.w3.org/2000/svg" height="17.505mm" width="17.505mm" version="1.1" xmlns:cc="http://creativecommons.org/ns#" xmlns:dc="http://purl.org/dc/elements/1.1/" viewBox="0 0 62.02625 62.024999">
 <metadata id="metadata4101">
  <rdf:RDF>
   <cc:Work rdf:about="">
    <dc:format>image/svg+xml</dc:format>
    <dc:type rdf:resource="http://purl.org/dc/dcmitype/StillImage"/>
    <dc:title/>
   </cc:Work>
  </rdf:RDF>
 </metadata>
 <g id="layer1" transform="translate(-327.09 -633.2)">
  <path id="path3822" opacity=".39999" d="m388.49 664.21c0 16.782-13.605 30.388-30.388 30.388-16.784 0-30.389-13.605-30.389-30.388 0-16.782 13.605-30.388 30.389-30.388 16.782 0 30.388 13.605 30.388 30.388z" stroke="#244a7b" stroke-miterlimit="10" stroke-width="1.25" fill="none"/>
  <g fill="#2196d4">
   <path id="path3976" d="m358.5 641.39c2.1925 0 3.9688 1.7775 3.9688 3.9688 0 2.1925-1.7762 3.97-3.9688 3.97-2.1925 0-3.9688-1.7775-3.9688-3.97 0-2.1912 1.7762-3.9688 3.9688-3.9688"/>
   <path id="path3984" d="m370.49 682.43v-0.001c-0.0437-0.22875-3.7038-10.415-3.7038-10.415l-5.5288-5.63v-11.428c0-2.5962-4.7088-4.2912-5.2588-3.9112-0.36125 0.25-8.6438 5.39-8.6438 5.39l-0.87875 8.745c-0.01 0.0812-0.0175 0.16125-0.0175 0.245 0 0.98625 0.8 1.7862 1.7862 1.7862 0.9875 0 1.7875-0.8 1.7875-1.7862l0.73875-6.66 4.115-2.3962v9.9812l7.5512 7.2812 3.8538 9.985c0.315 0.82375 1.1112 1.41 2.0462 1.41 1.21 0 2.1912-0.98125 2.1912-2.1912 0-0.13875 0-0.2-0.0387-0.405"/>
   <path id="path3992" d="m345.64 682.26c-0.32625 0.3825-0.52375 0.8775-0.52375 1.42 0 1.21 0.98125 2.1912 2.1912 2.1912 0.77375 0 1.4512-0.40125 1.8412-1.0075l6.7025-8.67 2.0612-4.5575-3.3888-3.1762-2.505 5.1125-6.3788 8.6875z"/>
  </g>
  <path id="path3996" stroke-linejoin="round" d="m345.64 682.26c-0.32625 0.3825-0.52375 0.8775-0.52375 1.42 0 1.21 0.98125 2.1912 2.1912 2.1912 0.77375 0 1.4512-0.40125 1.8412-1.0075l6.7025-8.67 2.0612-4.5575-3.3888-3.1762-2.505 5.1125-6.3788 8.6875z" stroke="#2196d4" stroke-miterlimit="10" stroke-width=".625" fill="none"/>
  <path id="path4000" d="m362.86 659.48s-0.0675 4.9225 0 4.8212c0.0587-0.0888 2.4788 1.9188 3.1012 2.4375 0.045 0.0438 0.0937 0.0838 0.14375 0.12125l0.001 0.001c0.2975 0.22375 0.6675 0.35625 1.0688 0.35625 0.98625 0 1.7862-0.8 1.7862-1.7862 0-0.665-0.36125-1.075-0.90375-1.5512l-5.1975-4.4z" fill="#2196d4"/>
  <path id="path4004" stroke-linejoin="round" d="m362.86 659.48s-0.0675 4.9225 0 4.8212c0.0587-0.0888 2.4788 1.9188 3.1012 2.4375 0.045 0.0438 0.0937 0.0838 0.14375 0.12125l0.001 0.001c0.2975 0.22375 0.6675 0.35625 1.0688 0.35625 0.98625 0 1.7862-0.8 1.7862-1.7862 0-0.665-0.36125-1.075-0.90375-1.5512l-5.1975-4.4z" stroke="#2196d4" stroke-miterlimit="10" stroke-width=".625" fill="none"/>
 </g>
</svg>
