<?xml version="1.0" encoding="UTF-8" standalone="no"?>
<!-- Created with Inkscape (http://www.inkscape.org/) -->
<svg id="svg3336" xmlns:rdf="http://www.w3.org/1999/02/22-rdf-syntax-ns#" xmlns="http://www.w3.org/2000/svg" xml:space="preserve" height="736.57" viewBox="0 0 658.36249 736.5675" width="658.36" version="1.1" xmlns:cc="http://creativecommons.org/ns#" xmlns:dc="http://purl.org/dc/elements/1.1/"><metadata id="metadata3342"><rdf:RDF><cc:Work rdf:about=""><dc:format>image/svg+xml</dc:format><dc:type rdf:resource="http://purl.org/dc/dcmitype/StillImage"/><dc:title/></cc:Work></rdf:RDF></metadata><defs id="defs3340"><clipPath id="clipPath3350" clipPathUnits="userSpaceOnUse"><path id="path3352" d="m0 589.25h526.69v-589.25h-526.69v589.25z"/></clipPath><clipPath id="clipPath3358" clipPathUnits="userSpaceOnUse"><path id="path3360" d="m0.55664 530.06h117.48v-117.48h-117.48v117.48z"/></clipPath><clipPath id="clipPath3374" clipPathUnits="userSpaceOnUse"><path id="path3376" d="m117.54 471.82h10.483v-1h-10.483v1z"/></clipPath><clipPath id="clipPath3390" clipPathUnits="userSpaceOnUse"><path id="path3392" d="m172.25 471.82h11.214v-1h-11.214v1z"/></clipPath><clipPath id="clipPath3406" clipPathUnits="userSpaceOnUse"><path id="path3408" d="m297.76 359.54h117.48v-117.48h-117.48v117.48z"/></clipPath><clipPath id="clipPath3422" clipPathUnits="userSpaceOnUse"><path id="path3424" d="m192.2 530.06h117.48v-117.48h-117.48v117.48z"/></clipPath><clipPath id="clipPath3438" clipPathUnits="userSpaceOnUse"><path id="path3440" d="m383.85 530.06h117.48v-117.48h-117.48v117.48z"/></clipPath><clipPath id="clipPath3454" clipPathUnits="userSpaceOnUse"><path id="path3456" d="m302.52 249.58h26.54v-47.845h-26.54v47.845z"/></clipPath><clipPath id="clipPath3470" clipPathUnits="userSpaceOnUse"><path id="path3472" d="m127.52 493.94h45.228v-45.228h-45.228v45.228z"/></clipPath><clipPath id="clipPath3486" clipPathUnits="userSpaceOnUse"><path id="path3488" d="m428.83 413.09h12.545v-112.79h-12.545v112.79z"/></clipPath><clipPath id="clipPath3502" clipPathUnits="userSpaceOnUse"><path id="path3504" d="m383.94 249.58h26.54v-47.845h-26.54v47.845z"/></clipPath><clipPath id="clipPath3554" clipPathUnits="userSpaceOnUse"><path id="path3556" d="m0 589.25h526.69v-589.25h-526.69v589.25z"/></clipPath><clipPath id="clipPath3570" clipPathUnits="userSpaceOnUse"><path id="path3572" d="m0 589.25h526.69v-589.25h-526.69v589.25z"/></clipPath><clipPath id="clipPath3586" clipPathUnits="userSpaceOnUse"><path id="path3588" d="m0 589.25h526.69v-589.25h-526.69v589.25z"/></clipPath><clipPath id="clipPath3606" clipPathUnits="userSpaceOnUse"><path id="path3608" d="m0 589.25h526.69v-589.25h-526.69v589.25z"/></clipPath><clipPath id="clipPath3622" clipPathUnits="userSpaceOnUse"><path id="path3624" d="m0 589.25h526.69v-589.25h-526.69v589.25z"/></clipPath><clipPath id="clipPath3648" clipPathUnits="userSpaceOnUse"><path id="path3650" d="m0 589.25h526.69v-589.25h-526.69v589.25z"/></clipPath><clipPath id="clipPath3752" clipPathUnits="userSpaceOnUse"><path id="path3754" d="m0.35625 202.19h117.48v-117.48h-117.48v117.48z"/></clipPath><clipPath id="clipPath3782" clipPathUnits="userSpaceOnUse"><path id="path3784" d="m309.25 471.82h10.483v-1h-10.483v1z"/></clipPath><clipPath id="clipPath3798" clipPathUnits="userSpaceOnUse"><path id="path3800" d="m363.96 471.82h11.214v-1h-11.214v1z"/></clipPath><clipPath id="clipPath3814" clipPathUnits="userSpaceOnUse"><path id="path3816" d="m319.23 493.94h45.228v-45.228h-45.228v45.228z"/></clipPath><clipPath id="clipPath3838" clipPathUnits="userSpaceOnUse"><path id="path3840" d="m383.88 201.65h117.48v-117.48h-117.48v117.48z"/></clipPath><clipPath id="clipPath3862" clipPathUnits="userSpaceOnUse"><path id="path3864" d="m0 589.25h526.69v-589.25h-526.69v589.25z"/></clipPath><clipPath id="clipPath3882" clipPathUnits="userSpaceOnUse"><path id="path3884" d="m212.41 201.65h117.48v-117.48h-117.48v117.48z"/></clipPath><clipPath id="clipPath3906" clipPathUnits="userSpaceOnUse"><path id="path3908" d="m0 589.25h526.69v-589.25h-526.69v589.25z"/></clipPath><clipPath id="clipPath3992" clipPathUnits="userSpaceOnUse"><path id="path3994" d="m0 589.25h526.69v-589.25h-526.69v589.25z"/></clipPath><clipPath id="clipPath4054" clipPathUnits="userSpaceOnUse"><path id="path4056" d="m58.941 357.79h1v-156.29h-1v156.29z"/></clipPath><clipPath id="clipPath4082" clipPathUnits="userSpaceOnUse"><path id="path4084" d="m135.6 143.42h78.249v-1h-78.249v1z"/></clipPath></defs><g id="g3344" transform="matrix(1.25 0 0 -1.25 0 736.57)"><g id="g3346"><g id="g3348" clip-path="url(#clipPath3350)"><g id="g3354"><g id="g3362"><g id="g3364" opacity=".39999" clip-path="url(#clipPath3358)"><g id="g3366" transform="translate(117.54 471.32)"><path id="path3368" d="m0 0c0-32.165-26.075-58.239-58.239-58.239-32.165 0-58.239 26.074-58.239 58.239s26.074 58.239 58.239 58.239c32.166 0 58.241-26.074 58.241-58.239z" stroke="#244a7b" stroke-miterlimit="10" fill="none"/></g></g></g></g><g id="g3370"><g id="g3378"><g id="g3380" opacity=".39999" clip-path="url(#clipPath3374)"><g id="g3382" transform="translate(117.54 471.32)"><path id="path3384" d="m0 0h10.483" stroke="#244a7b" stroke-miterlimit="10" fill="none"/></g></g></g></g><g id="g3386"><g id="g3394"><g id="g3396" opacity=".39999" clip-path="url(#clipPath3390)"><g id="g3398" transform="translate(172.25 471.32)"><path id="path3400" d="m0 0h11.214" stroke="#244a7b" stroke-miterlimit="10" fill="none"/></g></g></g></g><g id="g3402"><g id="g3410"><g id="g3412" opacity=".39999" clip-path="url(#clipPath3406)"><g id="g3414" transform="translate(414.74 300.8)"><path id="path3416" d="m0 0c0-32.165-26.075-58.239-58.239-58.239-32.165 0-58.239 26.074-58.239 58.239s26.074 58.239 58.239 58.239c32.166 0 58.241-26.074 58.241-58.239z" stroke="#244a7b" stroke-miterlimit="10" fill="none"/></g></g></g></g><g id="g3418"><g id="g3426"><g id="g3428" opacity=".39999" clip-path="url(#clipPath3422)"><g id="g3430" transform="translate(309.18 471.32)"><path id="path3432" d="m0 0c0-32.165-26.075-58.239-58.239-58.239-32.165 0-58.239 26.074-58.239 58.239s26.074 58.239 58.239 58.239c32.166 0 58.241-26.074 58.241-58.239z" stroke="#244a7b" stroke-miterlimit="10" fill="none"/></g></g></g></g><g id="g3434"><g id="g3442"><g id="g3444" opacity=".39999" clip-path="url(#clipPath3438)"><g id="g3446" transform="translate(500.82 471.32)"><path id="path3448" d="m0 0c0-32.165-26.075-58.239-58.239-58.239-32.165 0-58.239 26.074-58.239 58.239s26.074 58.239 58.239 58.239c32.166 0 58.241-26.074 58.241-58.239z" stroke="#244a7b" stroke-miterlimit="10" fill="none"/></g></g></g></g><g id="g3450"><g id="g3458"><g id="g3460" opacity=".39999" clip-path="url(#clipPath3454)"><g id="g3462" transform="translate(328.63 249.34)"><path id="path3464" d="m0 0-25.661-47.368" stroke="#244a7b" stroke-miterlimit="10" fill="none"/></g></g></g></g><g id="g3466"><g id="g3474"><g id="g3476" opacity=".39999" clip-path="url(#clipPath3470)"><g id="g3478" transform="translate(172.25 471.32)"><path id="path3480" d="m0 0c0-12.213-9.901-22.114-22.114-22.114s-22.113 9.901-22.113 22.114 9.9 22.114 22.113 22.114 22.114-9.901 22.114-22.114z" stroke="#244a7b" stroke-miterlimit="10" fill="none"/></g></g></g></g><g id="g3482"><g id="g3490"><g id="g3492" opacity=".39999" clip-path="url(#clipPath3486)"><g id="g3494" transform="translate(440.88 413.09)"><path id="path3496" d="m0 0v-112.29h-12.045" stroke="#244a7b" stroke-miterlimit="10" fill="none"/></g></g></g></g><g id="g3498"><g id="g3506"><g id="g3508" opacity=".39999" clip-path="url(#clipPath3502)"><g id="g3510" transform="translate(384.38 249.34)"><path id="path3512" d="m0 0 25.661-47.368" stroke="#244a7b" stroke-miterlimit="10" fill="none"/></g></g></g></g><g id="g3514" transform="translate(72.12 529.56)"><path id="path3516" d="m0 0c0-7.082-5.741-12.824-12.824-12.824-7.082 0-12.823 5.742-12.823 12.824s5.741 12.824 12.823 12.824c7.083 0 12.824-5.742 12.824-12.824" fill="#2196d4"/></g><g id="g3518" transform="translate(120.64 471.32)"><path id="path3520" d="m0 0c0-1.715-1.39-3.104-3.104-3.104-1.715 0-3.105 1.389-3.105 3.104s1.39 3.104 3.105 3.104c1.714 0 3.104-1.389 3.104-3.104" fill="#2196d4"/></g><g id="g3522" transform="translate(440.88 409.98)"><path id="path3524" d="m0 0c-1.715 0-3.104 1.39-3.104 3.104 0 1.715 1.389 3.105 3.104 3.105s3.104-1.39 3.104-3.105c0-1.714-1.389-3.104-3.104-3.104" fill="#2196d4"/></g><g id="g3526" transform="translate(331.73 249.34)"><path id="path3528" d="m0 0c0-1.715-1.39-3.104-3.104-3.104-1.715 0-3.105 1.389-3.105 3.104s1.39 3.104 3.105 3.104c1.714 0 3.104-1.389 3.104-3.104" fill="#2196d4"/></g><g id="g3530" transform="translate(387.48 249.34)"><path id="path3532" d="m0 0c0-1.715-1.39-3.104-3.104-3.104-1.715 0-3.105 1.389-3.105 3.104s1.39 3.104 3.105 3.104c1.714 0 3.104-1.389 3.104-3.104" fill="#2196d4"/></g><g id="g3534" transform="translate(179.82 471.32)"><path id="path3536" d="m0 0v4.707l4.076-2.354 4.077-2.353-4.077-2.353-4.076-2.354v4.707z" fill="#2196d4"/></g><g id="g3538" transform="translate(302.05 205.86)"><path id="path3540" d="m0 0v4.707l4.076-2.354 4.077-2.353-4.077-2.353-4.076-2.354v4.707z" fill="#2196d4"/></g><g id="g3542" transform="translate(410.95 205.77)"><path id="path3544" d="m0 0v-4.707l-4.076 2.354-4.077 2.353 4.077 2.353 4.076 2.354v-4.707z" fill="#2196d4"/></g></g></g><text id="text3546" font-weight="bold" transform="matrix(1 0 0 -1 54.104 524.08)" font-size="17px" font-family="Roboto" fill="#ffffff"><tspan id="tspan3548" y="0" x="0">1</tspan></text>
<g id="g3550"><g id="g3552" clip-path="url(#clipPath3554)"><g id="g3558" transform="translate(263.76 529.56)"><path id="path3560" d="m0 0c0-7.082-5.741-12.824-12.824-12.824-7.082 0-12.823 5.742-12.823 12.824s5.741 12.824 12.823 12.824c7.083 0 12.824-5.742 12.824-12.824" fill="#2196d4"/></g></g></g><text id="text3562" font-weight="bold" transform="matrix(1 0 0 -1 245.75 524.08)" font-size="17px" font-family="Roboto" fill="#ffffff"><tspan id="tspan3564" y="0" x="0">2</tspan></text>
<g id="g3566"><g id="g3568" clip-path="url(#clipPath3570)"><g id="g3574" transform="translate(455.41 529.56)"><path id="path3576" d="m0 0c0-7.082-5.741-12.824-12.824-12.824-7.082 0-12.823 5.742-12.823 12.824s5.741 12.824 12.823 12.824c7.083 0 12.824-5.742 12.824-12.824" fill="#2196d4"/></g></g></g><text id="text3578" font-weight="bold" transform="matrix(1 0 0 -1 437.39 524.08)" font-size="17px" font-family="Roboto" fill="#ffffff"><tspan id="tspan3580" y="0" x="0">3</tspan></text>
<g id="g3582"><g id="g3584" clip-path="url(#clipPath3586)"><g id="g3590" transform="translate(310.21 300.13)"><path id="path3592" d="m0 0c0-7.082-5.741-12.824-12.824-12.824-7.082 0-12.823 5.742-12.823 12.824s5.741 12.824 12.823 12.824c7.083 0 12.824-5.742 12.824-12.824" fill="#2196d4"/></g></g></g><text id="text3594" font-weight="bold" transform="matrix(1 0 0 -1 292.19 294.65)" font-size="16px" font-family="Roboto" fill="#ffffff"><tspan id="tspan3596" y="0" x="0">4</tspan></text>
<text id="text3598" transform="matrix(1 0 0 -1 17.626 384.39)" font-size="12.965px" font-family="Roboto" fill="#2b2b2a"><tspan id="tspan3600" y="0" x="0 8.9130936 16.601042 25.053896 28.269093 33.701218 41.181736 48.662251 55.917187 61.639717 68.510902 75.096863">OSA гипотеза</tspan></text>
<g id="g3602"><g id="g3604" clip-path="url(#clipPath3606)"><text id="text3610" transform="matrix(1 0 0 -1 194.84 578.07)" font-size="12.965px" font-family="Roboto" fill="#2b2b2a"><tspan id="tspan3612" y="0" x="0 8.4398899 15.829655 22.415621 30.239697 37.292385 44.090969 49.813499 56.593933 63.711441 66.926636 76.546295 84.026817 90.807251 97.587685 105.0682">Создается миссия</tspan></text>
</g></g><text id="text3614" transform="matrix(1 0 0 -1 183.11 562.51)" font-size="12.965px" font-family="Roboto" fill="#2b2b2a"><tspan id="tspan3616" y="0" x="0 7.4805164 14.870281 18.078995 25.559511 32.832596 40.222363 47.625092 54.496277 61.76936 68.669067 75.540253 78.748962 84.181091 91.661606 99.142128 106.39706 112.11959 118.99078 125.57674">по проверке гипотезы</tspan></text>
<g id="g3618"><g id="g3620" clip-path="url(#clipPath3622)"><text id="text3626" transform="matrix(1 0 0 -1 376.98 578.16)" font-size="12.965px" font-family="Roboto" fill="#2b2b2a"><tspan id="tspan3628" y="0" x="0 9.2436886 16.516773 23.906538 31.309267 38.180454 45.453537 52.454369 59.507053 62.722252 70.124977 73.333694 82.953354 90.006042 95.438164 102.49085 109.07682 116.55733 124.03786">Проверка в магазине</tspan></text>
</g></g><text id="text3630" transform="matrix(1 0 0 -1 397.39 562.61)" font-size="12.965px" font-family="Roboto" fill="#2b2b2a"><tspan id="tspan3632" y="0" x="0 7.4027295 10.617926 16.340456 23.211641 30.251364 37.122551 44.603065 52.083584 58.954769 62.169964 69.209686 76.262375 83.042809">в течение часа</tspan><tspan id="tspan3634" y="250.88901" x="-233.89255 -224.64885 -217.71025 -210.00674 -203.78378 -196.38106 -189.50987 -182.33144 -172.40062 -164.57655 -157.70537 -150.22485 -142.74432 -135.87314">Подтверждение </tspan><tspan id="tspan3636" y="266.44641" x="-233.49065 -226.01013 -218.51665 -211.03613 -207.82094 -200.56599 -194.34305 -187.34221 -179.84872 -172.45897 -164.97845 -158.10727 -150.62674 -143.14622 -136.27504">или отклонение </tspan><tspan id="tspan3638" y="282.00381" x="-213.33084 -207.89873 -200.41821 -192.93768 -185.68275 -179.96022 -173.08904 -166.50307">гипотезы</tspan><tspan id="tspan3640" y="501.89468" x="-1.6075979 7.3054957 14.993444 23.446299 26.661493 34.485569 41.875336 49.148418 56.201107 63.370476 70.624115 76.847076 83.8479 90.900589">OSA доработка </tspan><tspan id="tspan3642" y="517.45209" x="12.199594 19.252283 26.745764 32.056023 39.445789 46.718872 54.19939 60.430126 70.049789">алгоритма</tspan></text>
<g id="g3644"><g id="g3646" clip-path="url(#clipPath3648)"><g id="g3652" transform="translate(245.31 492.23)"><path id="path3654" stroke-linejoin="round" d="m0 0c0 2.467-2 4.467-4.467 4.467h-16.983c-2.467 0-4.466-2-4.466-4.467v-5.039h25.916v-27.134" stroke="#2196d4" stroke-linecap="round" stroke-miterlimit="10" stroke-width="2" fill="none"/></g><g id="g3656" transform="translate(219.4 450.41)"><path id="path3658" stroke-linejoin="round" d="m0 0c0-2.467 2-4.467 4.467-4.467h16.983c2.467 0 4.466 2 4.466 4.467v5.039h-25.916v27.134" stroke="#2196d4" stroke-linecap="round" stroke-miterlimit="10" stroke-width="2" fill="none"/></g><g id="g3660" transform="translate(225.9 491.8)"><path id="path3662" stroke-linejoin="round" d="m0 0h12.904" stroke="#2196d4" stroke-linecap="round" stroke-miterlimit="10" stroke-width="2" fill="none"/></g><g id="g3664" transform="translate(230.1 450.79)"><path id="path3666" stroke-linejoin="round" d="m0 0h4.5" stroke="#2196d4" stroke-linecap="round" stroke-miterlimit="10" stroke-width="2" fill="none"/></g><g id="g3668" transform="translate(266.67 491.73)"><path id="path3670" d="m0 0c6.703 0.772 11.38-3.69 10.763-11.317-0.173-2.125-1.052-4.668-2.109-6.546-1.001-1.783-3.258-3.506-2.664-5.77 0.377-1.431 3.525-2.274 4.662-2.773 2.9-1.275 6.969-3.176 7.988-6.213 0.264-0.783 0.462-2.689 0-3.884-1.626-4.214-11.705-4.438-17.309-4.438-3.1 0-6.866 0.048-10.209 0.666-3.893 0.719-8.609 2.28-7.211 7.434 0.63 2.324 3.436 4.025 5.991 5.437 0.742 0.412 2.313 1.3 3.772 1.886 1.231 0.495 2.952 0.944 3.107 2.552 0.131 1.36-0.732 2.088-1.553 3.218-1.879 2.584-3.648 6.105-3.329 10.874 0.315 4.68 3.227 8.314 8.101 8.874z" stroke="#2196d4" stroke-linecap="round" stroke-miterlimit="10" stroke-width="2" fill="none"/></g><g id="g3672" transform="translate(75.714 448.6)"><path id="path3674" stroke-linejoin="round" d="m0 0h12.087c1.413 0 2.56 1.146 2.56 2.56v39.093c0 1.414-1.147 2.56-2.56 2.56h-5.378" stroke="#2196d4" stroke-linecap="round" stroke-miterlimit="10" stroke-width="2" fill="none"/></g><g id="g3676" transform="translate(36.169 448.6)"><path id="path3678" stroke-linejoin="round" d="m0 0h-5.377c-1.414 0-2.561 1.146-2.561 2.56v39.093c0 1.414 1.147 2.56 2.561 2.56h28.208 23.424v-39.665" stroke="#2196d4" stroke-linecap="round" stroke-miterlimit="10" stroke-width="2" fill="none"/></g><g id="g3680" transform="translate(53.859 448.6)"><path id="path3682" stroke-linejoin="round" d="m0 0h-17.691v39.665" stroke="#2196d4" stroke-linecap="round" stroke-miterlimit="10" stroke-width="2" fill="none"/></g><g id="g3684" transform="translate(58.23 450.32)"><path id="path3686" d="m0 0v19.664c0 1.207 0.978 2.186 2.185 2.186s2.186-0.979 2.186-2.186v-13.469" stroke="#2196d4" stroke-linecap="round" stroke-miterlimit="10" stroke-width="2" fill="none"/></g><g id="g3688" transform="translate(62.601 456.51)"><path id="path3690" d="m0 0v6.238c0 1.207 0.978 2.185 2.185 2.185s2.186-0.978 2.186-2.185v-8.376" stroke="#2196d4" stroke-linecap="round" stroke-miterlimit="10" stroke-width="2" fill="none"/></g><g id="g3692" transform="translate(66.972 454.37)"><path id="path3694" d="m0 0v6.191c0 1.207 0.978 2.185 2.185 2.185s2.186-0.978 2.186-2.185v-8.29" stroke="#2196d4" stroke-linecap="round" stroke-miterlimit="10" stroke-width="2" fill="none"/></g><g id="g3696" transform="translate(71.343 452.28)"><path id="path3698" d="m0 0v6.108c0 1.207 0.978 2.185 2.185 2.185s2.186-0.978 2.186-2.185v-9.176" stroke="#2196d4" stroke-linecap="round" stroke-miterlimit="10" stroke-width="2" fill="none"/></g><g id="g3700" transform="translate(53.859 449.21)"><path id="path3702" d="m0 0v6.997c0 1.207 0.978 2.186 2.185 2.186s2.186-0.979 2.186-2.186v-5.886" stroke="#2196d4" stroke-linecap="round" stroke-miterlimit="10" stroke-width="2" fill="none"/></g><g id="g3704" transform="translate(75.714 449.21)"><path id="path3706" d="m0 0c0-6.035-4.892-10.927-10.927-10.927s-10.928 4.892-10.928 10.927" stroke="#2196d4" stroke-linecap="round" stroke-miterlimit="10" stroke-width="2" fill="none"/></g><g id="g3708" transform="translate(54.257 469.98)"><path id="path3710" d="m0 0c0 3.402 2.758 6.159 6.159 6.159 3.402 0 6.159-2.757 6.159-6.159" stroke="#2196d4" stroke-linecap="round" stroke-miterlimit="10" stroke-width="2" fill="none"/></g><g id="g3712" transform="translate(50.308 469.98)"><path id="path3714" d="m0 0c0 5.582 4.525 10.108 10.108 10.108 5.582 0 10.107-4.526 10.107-10.108" stroke="#2196d4" stroke-linecap="round" stroke-miterlimit="10" stroke-width="2" fill="none"/></g><g id="g3716" transform="translate(86.289 469.24)"><path id="path3718" stroke-linejoin="round" d="m0 0v2.932" stroke="#2196d4" stroke-linecap="round" stroke-miterlimit="10" stroke-width="2" fill="none"/></g><g id="g3720" transform="translate(472.95 453.5)"><path id="path3722" stroke-linejoin="round" d="m0 0 2.301-2.301c1.861-1.861 1.861-4.878 0-6.739s-4.878-1.861-6.739 0l-12.131 12.131c-1.861 1.861-1.861 4.878 0 6.739s4.878 1.861 6.739 0l7.206-7.206" stroke="#2196d4" stroke-linecap="round" stroke-miterlimit="10" stroke-width="2" fill="none"/></g><g id="g3724" transform="translate(424.88 470.74)"><path id="path3726" stroke-linejoin="round" d="m0 0c-6.653 6.653-6.653 17.44 0 24.093s17.44 6.653 24.093 0 6.653-17.44 0-24.093-17.44-6.653-24.093 0z" stroke="#2196d4" stroke-linecap="round" stroke-miterlimit="10" stroke-width="2" fill="none"/></g><g id="g3728" transform="translate(456.38 463.33)"><path id="path3730" stroke-linejoin="round" d="m0 0-7.413 7.413" stroke="#2196d4" stroke-linecap="round" stroke-miterlimit="10" stroke-width="2" fill="none"/></g><g id="g3732" transform="translate(413.21 465.29)"><path id="path3734" stroke-linejoin="round" d="m0 0v-12.413" stroke="#2196d4" stroke-linecap="round" stroke-miterlimit="10" stroke-width="2" fill="none"/></g><g id="g3736" transform="translate(419.42 459.08)"><path id="path3738" stroke-linejoin="round" d="m0 0h-12.413" stroke="#2196d4" stroke-linecap="round" stroke-miterlimit="10" stroke-width="2" fill="none"/></g><g id="g3740" transform="translate(427.52 486.99)"><path id="path3742" stroke-linejoin="round" d="m0 0 5.764-5.764" stroke="#2196d4" stroke-linecap="round" stroke-miterlimit="10" stroke-width="2" fill="none"/></g><g id="g3744" transform="translate(428.83 479.81)"><path id="path3746" stroke-linejoin="round" d="m0 0 7.104-7.104" stroke="#2196d4" stroke-linecap="round" stroke-miterlimit="10" stroke-width="2" fill="none"/></g><g id="g3748"><g id="g3756"><g id="g3758" opacity=".39999" clip-path="url(#clipPath3752)"><g id="g3760" transform="translate(117.33 143.45)"><path id="path3762" d="m0 0c0-32.165-26.075-58.239-58.239-58.239-32.165 0-58.24 26.074-58.24 58.239s26.075 58.239 58.24 58.239 58.24-26.074 58.24-58.239z" stroke="#244a7b" stroke-miterlimit="10" fill="none"/></g></g></g></g><path id="path3764" stroke-linejoin="round" d="m161.16 464.15h-22.067v14.348h22.067v-14.348z" stroke="#2196d4" stroke-linecap="round" stroke-miterlimit="10" stroke-width="2" fill="none"/><g id="g3766" transform="translate(139.1 478.5)"><path id="path3768" stroke-linejoin="round" d="m0 0 11.034-8.993 11.033 8.993" stroke="#2196d4" stroke-linecap="round" stroke-miterlimit="10" fill="none"/></g><g id="g3770" transform="translate(147.93 470.93)"><path id="path3772" stroke-linejoin="round" d="m0 0-8.834-6.844" stroke="#2196d4" stroke-linecap="round" stroke-miterlimit="10" fill="none"/></g><g id="g3774" transform="translate(161.17 464.09)"><path id="path3776" stroke-linejoin="round" d="m0 0-8.834 6.844" stroke="#2196d4" stroke-linecap="round" stroke-miterlimit="10" fill="none"/></g><g id="g3778"><g id="g3786"><g id="g3788" opacity=".39999" clip-path="url(#clipPath3782)"><g id="g3790" transform="translate(309.25 471.32)"><path id="path3792" d="m0 0h10.483" stroke="#244a7b" stroke-miterlimit="10" fill="none"/></g></g></g></g><g id="g3794"><g id="g3802"><g id="g3804" opacity=".39999" clip-path="url(#clipPath3798)"><g id="g3806" transform="translate(363.96 471.32)"><path id="path3808" d="m0 0h11.214" stroke="#244a7b" stroke-miterlimit="10" fill="none"/></g></g></g></g><g id="g3810"><g id="g3818"><g id="g3820" opacity=".39999" clip-path="url(#clipPath3814)"><g id="g3822" transform="translate(363.96 471.32)"><path id="path3824" d="m0 0c0-12.213-9.901-22.114-22.114-22.114s-22.113 9.901-22.113 22.114 9.9 22.114 22.113 22.114 22.114-9.901 22.114-22.114z" stroke="#244a7b" stroke-miterlimit="10" fill="none"/></g></g></g></g><g id="g3826" transform="translate(312.35 471.32)"><path id="path3828" d="m0 0c0-1.715-1.39-3.104-3.104-3.104-1.715 0-3.105 1.389-3.105 3.104s1.39 3.104 3.105 3.104c1.714 0 3.104-1.389 3.104-3.104" fill="#2196d4"/></g><g id="g3830" transform="translate(371.53 471.32)"><path id="path3832" d="m0 0v4.707l4.076-2.354 4.077-2.353-4.077-2.353-4.076-2.354v4.707z" fill="#2196d4"/></g><g id="g3834"><g id="g3842"><g id="g3844" opacity=".39999" clip-path="url(#clipPath3838)"><g id="g3846" transform="translate(500.86 142.91)"><path id="path3848" d="m0 0c0-32.165-26.075-58.239-58.239-58.239-32.165 0-58.239 26.074-58.239 58.239s26.074 58.239 58.239 58.239c32.166 0 58.241-26.074 58.241-58.239z" stroke="#244a7b" stroke-miterlimit="10" fill="none"/></g></g></g></g><g id="g3850" transform="translate(415.62 101.58)"><path id="path3852" d="m0 0c0-7.082-5.741-12.824-12.824-12.824-7.082 0-12.823 5.742-12.823 12.824s5.741 12.824 12.823 12.824c7.083 0 12.824-5.742 12.824-12.824" fill="#2196d4"/></g></g></g><text id="text3854" font-weight="bold" transform="matrix(1 0 0 -1 394.53 97.238)" font-size="13px" font-family="Roboto" fill="#ffffff"><tspan id="tspan3856" y="0" x="0 7.4619999">5A</tspan></text>
<g id="g3858"><g id="g3860" clip-path="url(#clipPath3862)"><g id="g3866" transform="translate(456.38 134.04)"><path id="path3868" stroke-linejoin="round" d="m0 0-11.445-10.322-3.059-12.622h-8.251v18.721h-10.269l-6.387 5.798v19.069l6.035 7.507h26.006l7.155-7.507" stroke="#2196d4" stroke-linecap="round" stroke-miterlimit="10" stroke-width="2" fill="none"/></g><g id="g3870" transform="translate(470.08 151.53)"><path id="path3872" stroke-linejoin="round" d="m0 0v-21.719h-13.704v32.374h13.704v-5.639" stroke="#2196d4" stroke-linecap="round" stroke-miterlimit="10" stroke-width="2" fill="none"/></g><g id="g3874" transform="translate(463.23 134.95)"><path id="path3876" stroke-linejoin="round" d="m0 0v3.753" stroke="#2196d4" stroke-linecap="round" stroke-miterlimit="10" stroke-width="2" fill="none"/></g><g id="g3878"><g id="g3886"><g id="g3888" opacity=".39999" clip-path="url(#clipPath3882)"><g id="g3890" transform="translate(329.39 142.91)"><path id="path3892" d="m0 0c0-32.165-26.075-58.239-58.239-58.239-32.165 0-58.239 26.074-58.239 58.239s26.074 58.239 58.239 58.239c32.166 0 58.241-26.074 58.241-58.239z" stroke="#244a7b" stroke-miterlimit="10" fill="none"/></g></g></g></g><g id="g3894" transform="translate(239.14 101.58)"><path id="path3896" d="m0 0c0-7.082-5.741-12.824-12.824-12.824-7.082 0-12.823 5.742-12.823 12.824s5.741 12.824 12.823 12.824c7.083 0 12.824-5.742 12.824-12.824" fill="#2196d4"/></g></g></g><text id="text3898" font-weight="bold" transform="matrix(1 0 0 -1 218.06 97.238)" font-size="13px" font-family="Roboto" fill="#ffffff"><tspan id="tspan3900" y="0" x="0 7.4619999">5B</tspan></text>
<g id="g3902"><g id="g3904" clip-path="url(#clipPath3906)"><g id="g3910" transform="translate(261.02 151.79)"><path id="path3912" stroke-linejoin="round" d="m0 0 11.445 10.322 3.059 12.622h8.251v-18.721h10.269l6.387-5.798v-19.069l-6.035-7.507h-26.006l-7.155 7.507" stroke="#2196d4" stroke-linecap="round" stroke-miterlimit="10" stroke-width="2" fill="none"/></g><g id="g3914" transform="translate(247.32 134.3)"><path id="path3916" stroke-linejoin="round" d="m0 0v21.719h13.704v-32.374h-13.704v5.639" stroke="#2196d4" stroke-linecap="round" stroke-miterlimit="10" stroke-width="2" fill="none"/></g><g id="g3918" transform="translate(254.17 150.88)"><path id="path3920" stroke-linejoin="round" d="m0 0v-3.753" stroke="#2196d4" stroke-linecap="round" stroke-miterlimit="10" stroke-width="2" fill="none"/></g><g id="g3922" transform="translate(328.34 306.85)"><path id="path3924" stroke-linejoin="round" d="m0 0 13.444-13.444" stroke="#2196d4" stroke-linecap="round" stroke-miterlimit="10" stroke-width="2" fill="none"/></g><g id="g3926" transform="translate(341.79 306.85)"><path id="path3928" stroke-linejoin="round" d="m0 0-13.444-13.444" stroke="#2196d4" stroke-linecap="round" stroke-miterlimit="10" stroke-width="2" fill="none"/></g><path id="path3930" stroke-linejoin="round" d="m321.61 313.58h26.907v-26.907h-26.907v26.907z" stroke="#2196d4" stroke-linecap="round" stroke-miterlimit="10" stroke-width="2" fill="none"/><g id="g3932" transform="translate(395.39 308.7)"><path id="path3934" stroke-linejoin="round" d="m0 0-17.156-17.156-8.407 8.407" stroke="#2196d4" stroke-linecap="round" stroke-miterlimit="10" stroke-width="2" fill="none"/></g><g id="g3936" transform="translate(391.78 299.62)"><path id="path3938" stroke-linejoin="round" d="m0 0v-12.952h-26.907v26.907h26.907v-3.008" stroke="#2196d4" stroke-linecap="round" stroke-miterlimit="10" stroke-width="2" fill="none"/></g><g id="g3940" transform="translate(342.13 487.93)"><path id="path3942" d="m0 0c1.595 0 2.889-1.293 2.889-2.889 0-1.595-1.294-2.888-2.889-2.888s-2.889 1.293-2.889 2.888c0 1.596 1.294 2.889 2.889 2.889" fill="#2196d4"/></g><g id="g3944" transform="translate(342.13 487.93)"><path id="path3946" stroke-linejoin="round" d="m0 0c1.595 0 2.889-1.293 2.889-2.889 0-1.595-1.294-2.888-2.889-2.888s-2.889 1.293-2.889 2.888c0 1.596 1.294 2.889 2.889 2.889z" stroke="#2196d4" stroke-miterlimit="10" stroke-width=".5" fill="none"/></g><g id="g3948" transform="translate(350.86 458.06)"><path id="path3950" d="m0 0v0.001c-0.032 0.167-2.695 7.58-2.695 7.58l-4.023 4.096v8.316c0 1.889-3.427 3.123-3.828 2.846-0.263-0.181-6.29-3.922-6.29-3.922l-0.639-6.364c-0.008-0.059-0.013-0.117-0.013-0.178 0-0.718 0.582-1.3 1.3-1.3s1.3 0.582 1.3 1.3l0.538 4.846 2.995 1.744v-7.264l5.495-5.298 2.805-7.266c0.229-0.6 0.808-1.026 1.488-1.026 0.881 0 1.595 0.714 1.595 1.594 0.001 0.101 0.001 0.146-0.028 0.295" fill="#2196d4"/></g><g id="g3952" transform="translate(350.86 458.06)"><path id="path3954" stroke-linejoin="round" d="m0 0v0.001c-0.032 0.167-2.695 7.58-2.695 7.58l-4.023 4.096v8.316c0 1.889-3.427 3.123-3.828 2.846-0.263-0.181-6.29-3.922-6.29-3.922l-0.639-6.364c-0.008-0.059-0.013-0.117-0.013-0.178 0-0.718 0.582-1.3 1.3-1.3s1.3 0.582 1.3 1.3l0.538 4.846 2.995 1.744v-7.264l5.495-5.298 2.805-7.266c0.229-0.6 0.808-1.026 1.488-1.026 0.881 0 1.595 0.714 1.595 1.594 0.001 0.101 0.001 0.146-0.028 0.295z" stroke="#2196d4" stroke-miterlimit="10" stroke-width=".5" fill="none"/></g><g id="g3956" transform="translate(332.78 458.19)"><path id="path3958" d="m0 0c-0.237-0.279-0.381-0.639-0.381-1.033 0-0.88 0.714-1.595 1.594-1.595 0.563 0 1.057 0.292 1.341 0.733l4.877 6.309 1.5 3.317-2.466 2.311-1.823-3.72-4.642-6.322z" fill="#2196d4"/></g><g id="g3960" transform="translate(332.78 458.19)"><path id="path3962" stroke-linejoin="round" d="m0 0c-0.237-0.279-0.381-0.639-0.381-1.033 0-0.88 0.714-1.595 1.594-1.595 0.563 0 1.057 0.292 1.341 0.733l4.877 6.309 1.5 3.317-2.466 2.311-1.823-3.72-4.642-6.322z" stroke="#2196d4" stroke-miterlimit="10" stroke-width=".5" fill="none"/></g><g id="g3964" transform="translate(345.31 474.77)"><path id="path3966" d="m0 0s-0.049-3.582 0-3.508c0.043 0.064 1.803-1.397 2.257-1.775 0.033-0.031 0.068-0.06 0.104-0.087l0.001-0.001c0.217-0.163 0.486-0.26 0.778-0.26 0.718 0 1.3 0.582 1.3 1.3 0 0.484-0.263 0.783-0.657 1.129l-3.783 3.202z" fill="#2196d4"/></g><g id="g3968" transform="translate(345.31 474.77)"><path id="path3970" stroke-linejoin="round" d="m0 0s-0.049-3.582 0-3.508c0.043 0.064 1.803-1.397 2.257-1.775 0.033-0.031 0.068-0.06 0.104-0.087l0.001-0.001c0.217-0.163 0.486-0.26 0.778-0.26 0.718 0 1.3 0.582 1.3 1.3 0 0.484-0.263 0.783-0.657 1.129l-3.783 3.202z" stroke="#2196d4" stroke-miterlimit="10" stroke-width=".5" fill="none"/></g></g></g><text id="text3972" transform="matrix(1 0 0 -1 239.32 60.716)" font-size="12.965px" font-family="Roboto" fill="#2b2b2a"><tspan id="tspan3974" y="0" x="0 8.4398899 15.920406 21.352531 28.833048 35.885735 43.379215 53.439671 56.648384 63.649212">Сигналы к </tspan><tspan id="tspan3976" y="15.5574" x="-9.8659849 -2.385468 4.3949656 11.875482 19.148567 26.201254 33.603985 41.097466 47.968651 55.449165 62.929684 73.508713">исправлению </tspan><tspan id="tspan3978" y="31.114799" x="3.6689534 10.449387 17.929903 24.228058 30.266922 37.319611 44.994595 52.475109">ситуации</tspan><tspan id="tspan3980" y="0" x="-216.3775 -208.30063 -200.91086 -193.50813 -186.01465 -179.14346 -172.10374 -165.23256 -157.75203 -150.27151">Вовлечение</tspan><tspan id="tspan3982" y="15.5574" x="-229.35497 -221.96521 -214.79584 -207.92465 -200.44414 -194.01375 -190.79855 -184.01811 -178.05574 -170.66597 -163.39288 -156.00313 -148.52261 -145.31389 -137.83337 -130.44362">обеих сторон по </tspan><tspan id="tspan3984" y="31.114799" x="-220.90211 -213.51234 -206.34299 -199.4718 -192.69136 -185.21085 -178.33966 -171.29994 -164.42876 -156.94824 -149.46773 -138.88869">обеспечению </tspan><tspan id="tspan3986" y="46.672199" x="-229.45868 -223.49501 -216.10526 -208.70251 -201.64983 -194.37675 -187.32407 -184.10887 -176.62834 -169.57565 -166.36046 -158.87994 -151.58742 -144.09393 -137.19293">товара на полке</tspan></text>
<g id="g3988"><g id="g3990" clip-path="url(#clipPath3992)"><g id="g3996" transform="translate(51.123 144.79)"><path id="path3998" stroke-linejoin="round" d="m0 0v19.752h-9.087v-19.752" stroke="#2196d4" stroke-linecap="round" stroke-miterlimit="10" stroke-width="2" fill="none"/></g><path id="path4000" stroke-linejoin="round" d="m75.971 170.54h-33.934v4.407h33.934v-4.407z" stroke="#2196d4" stroke-linecap="round" stroke-miterlimit="10" stroke-width="2" fill="none"/><path id="path4002" stroke-linejoin="round" d="m75.971 149.73h-17.747v14.809h17.747v-14.809z" stroke="#2196d4" stroke-linecap="round" stroke-miterlimit="10" stroke-width="2" fill="none"/><g id="g4004" transform="translate(61.111 161.61)"><path id="path4006" stroke-linejoin="round" d="m0 0 3.512-3.512" stroke="#2196d4" stroke-linecap="round" stroke-miterlimit="10" stroke-width="2" fill="none"/></g><g id="g4008" transform="translate(65.426 161.01)"><path id="path4010" stroke-linejoin="round" d="m0 0 3.512-3.512" stroke="#2196d4" stroke-linecap="round" stroke-miterlimit="10" stroke-width="2" fill="none"/></g><g id="g4012" transform="translate(48.51 156.4)"><path id="path4014" stroke-linejoin="round" d="m0 0v-2.892" stroke="#2196d4" stroke-linecap="round" stroke-miterlimit="10" stroke-width="2" fill="none"/></g><g id="g4016" transform="translate(81.602 176.81)"><path id="path4018" stroke-linejoin="round" d="m0 0c0 2.012-1.631 3.644-3.644 3.644h-37.725c-2.013 0-3.644-1.632-3.644-3.644v-28.379c0-2.012 1.631-3.644 3.644-3.644h1.068 5.784 3.304 27.569c2.013 0 3.644 1.632 3.644 3.644v28.379z" stroke="#2196d4" stroke-linecap="round" stroke-miterlimit="10" stroke-width="2" fill="none"/></g><g id="g4020" transform="translate(40.796 107.26)"><path id="path4022" stroke-linejoin="round" d="m0 0h-4.207v26.854h29.097v-22.722" stroke="#2196d4" stroke-linecap="round" stroke-miterlimit="10" stroke-width="2" fill="none"/></g><g id="g4024" transform="translate(63.901 107.26)"><path id="path4026" stroke-linejoin="round" d="m0 0h-11.745" stroke="#2196d4" stroke-linecap="round" stroke-miterlimit="10" stroke-width="2" fill="none"/></g><g id="g4028" transform="translate(65.686 111.39)"><path id="path4030" stroke-linejoin="round" d="m0 0v17.182h15.916v-21.314h-6.341" stroke="#2196d4" stroke-linecap="round" stroke-miterlimit="10" stroke-width="2" fill="none"/></g><g id="g4032" transform="translate(32.95 128.57)"><path id="path4034" stroke-linejoin="round" d="m0 0h-11.53" stroke="#2196d4" stroke-linecap="round" stroke-miterlimit="10" stroke-width="2" fill="none"/></g><g id="g4036" transform="translate(32.95 124.15)"><path id="path4038" stroke-linejoin="round" d="m0 0h-7.133" stroke="#2196d4" stroke-linecap="round" stroke-miterlimit="10" stroke-width="2" fill="none"/></g><path id="path4040" stroke-linejoin="round" d="m81.602 117.92h-7.958v10.657h7.958v-10.657z" stroke="#2196d4" stroke-linecap="round" stroke-miterlimit="10" stroke-width="2" fill="none"/><g id="g4042" transform="translate(40.796 107.26)"><path id="path4044" stroke-linejoin="round" d="m0 0c0 3.137 2.543 5.68 5.68 5.68s5.68-2.543 5.68-5.68-2.543-5.68-5.68-5.68-5.68 2.543-5.68 5.68z" stroke="#2196d4" stroke-linecap="round" stroke-miterlimit="10" stroke-width="2" fill="none"/></g><g id="g4046" transform="translate(63.901 107.26)"><path id="path4048" stroke-linejoin="round" d="m0 0c0 3.137 2.543 5.68 5.68 5.68s5.68-2.543 5.68-5.68-2.543-5.68-5.68-5.68-5.68 2.543-5.68 5.68z" stroke="#2196d4" stroke-linecap="round" stroke-miterlimit="10" stroke-width="2" fill="none"/></g><g id="g4050"><g id="g4058"><g id="g4060" opacity=".39999" clip-path="url(#clipPath4054)"><g id="g4062" transform="translate(59.441 201.5)"><path id="path4064" d="m0 0v156.29" stroke="#244a7b" stroke-miterlimit="10" fill="none"/></g></g></g></g><g id="g4066" transform="translate(62.545 201.5)"><path id="path4068" d="m0 0c0-1.715-1.39-3.104-3.104-3.104-1.715 0-3.105 1.389-3.105 3.104s1.39 3.104 3.105 3.104c1.714 0 3.104-1.389 3.104-3.104" fill="#2196d4"/></g><g id="g4070" transform="translate(59.441 354.1)"><path id="path4072" d="m0 0h-6.36l3.18 5.508 3.18 5.508 3.18-5.508 3.18-5.508h-6.36z" fill="#2196d4"/></g><g id="g4074" transform="translate(430.57 300.79)"><path id="path4076" d="m0 0v-6.36l-5.508 3.18-5.508 3.18 5.508 3.18 5.508 3.18v-6.36z" fill="#2196d4"/></g><g id="g4078"><g id="g4086"><g id="g4088" opacity=".39999" clip-path="url(#clipPath4082)"><g id="g4090" transform="translate(213.85 142.91)"><path id="path4092" d="m0 0h-78.248" stroke="#244a7b" stroke-miterlimit="10" fill="none"/></g></g></g></g><g id="g4094" transform="translate(213.85 146.02)"><path id="path4096" d="m0 0c1.715 0 3.104-1.39 3.104-3.104 0-1.715-1.389-3.105-3.104-3.105s-3.104 1.39-3.104 3.105c0 1.714 1.389 3.104 3.104 3.104" fill="#2196d4"/></g><g id="g4098" transform="translate(139.29 142.91)"><path id="path4100" d="m0 0v-6.36l-5.508 3.18-5.508 3.18 5.508 3.18 5.508 3.18v-6.36z" fill="#2196d4"/></g></g></g></g></svg>
