<?xml version="1.0" encoding="UTF-8" standalone="no"?>
<!-- Created with Inkscape (http://www.inkscape.org/) -->
<svg id="svg3336" xmlns:rdf="http://www.w3.org/1999/02/22-rdf-syntax-ns#" xmlns="http://www.w3.org/2000/svg" xml:space="preserve" height="497.57" viewBox="0 0 1151.9287 497.57187" width="1151.9" version="1.1" xmlns:cc="http://creativecommons.org/ns#" xmlns:dc="http://purl.org/dc/elements/1.1/"><metadata id="metadata3342"><rdf:RDF><cc:Work rdf:about=""><dc:format>image/svg+xml</dc:format><dc:type rdf:resource="http://purl.org/dc/dcmitype/StillImage"/><dc:title/></cc:Work></rdf:RDF></metadata><defs id="defs3340"><clipPath id="clipPath3350" clipPathUnits="userSpaceOnUse"><path id="path3352" d="m0 595h1040v-595h-1040v595z"/></clipPath><clipPath id="clipPath3358" clipPathUnits="userSpaceOnUse"><path id="path3360" d="m124.81 241.5h168.33v-101.03h-168.33v101.03z"/></clipPath><clipPath id="clipPath3378" clipPathUnits="userSpaceOnUse"><path id="path3380" d="m59.551 460.9h129.05v-129.05h-129.05v129.05z"/></clipPath><clipPath id="clipPath3394" clipPathUnits="userSpaceOnUse"><path id="path3396" d="m188.1 396.88h27.969v-1h-27.969v1z"/></clipPath><clipPath id="clipPath3410" clipPathUnits="userSpaceOnUse"><path id="path3412" d="m264.69 396.88h17.81v-1h-17.81v1z"/></clipPath><clipPath id="clipPath3426" clipPathUnits="userSpaceOnUse"><path id="path3428" d="m757.38 460.9h129.05v-129.05h-129.05v129.05z"/></clipPath><clipPath id="clipPath3442" clipPathUnits="userSpaceOnUse"><path id="path3444" d="m292.16 460.9h129.05v-129.05h-129.05v129.05z"/></clipPath><clipPath id="clipPath3458" clipPathUnits="userSpaceOnUse"><path id="path3460" d="m524.77 460.9h129.05v-129.05h-129.05v129.05z"/></clipPath><clipPath id="clipPath3474" clipPathUnits="userSpaceOnUse"><path id="path3476" d="m762.61 340.05h29.089v-52.55h-29.089v52.55z"/></clipPath><clipPath id="clipPath3490" clipPathUnits="userSpaceOnUse"><path id="path3492" d="m215.57 421.19h49.621v-49.62h-49.621v49.62z"/></clipPath><clipPath id="clipPath3506" clipPathUnits="userSpaceOnUse"><path id="path3508" d="m653.17 396.88h95.4v-1h-95.4v1z"/></clipPath><clipPath id="clipPath3522" clipPathUnits="userSpaceOnUse"><path id="path3524" d="m852.11 340.05h29.089v-52.55h-29.089v52.55z"/></clipPath><clipPath id="clipPath3578" clipPathUnits="userSpaceOnUse"><path id="path3580" d="m0 595h1040v-595h-1040v595z"/></clipPath><clipPath id="clipPath3594" clipPathUnits="userSpaceOnUse"><path id="path3596" d="m0 595h1040v-595h-1040v595z"/></clipPath><clipPath id="clipPath3610" clipPathUnits="userSpaceOnUse"><path id="path3612" d="m0 595h1040v-595h-1040v595z"/></clipPath><clipPath id="clipPath3646" clipPathUnits="userSpaceOnUse"><path id="path3648" d="m0 595h1040v-595h-1040v595z"/></clipPath><clipPath id="clipPath3750" clipPathUnits="userSpaceOnUse"><path id="path3752" d="m292.64 205.49h129.05v-129.05h-129.05v129.05z"/></clipPath><clipPath id="clipPath3780" clipPathUnits="userSpaceOnUse"><path id="path3782" d="m420.78 396.88h27.97v-1h-27.97v1z"/></clipPath><clipPath id="clipPath3796" clipPathUnits="userSpaceOnUse"><path id="path3798" d="m497.37 396.88h17.811v-1h-17.811v1z"/></clipPath><clipPath id="clipPath3812" clipPathUnits="userSpaceOnUse"><path id="path3814" d="m448.25 421.19h49.62v-49.62h-49.62v49.62z"/></clipPath><clipPath id="clipPath3836" clipPathUnits="userSpaceOnUse"><path id="path3838" d="m852.05 287.34h129.05v-129.05h-129.05v129.05z"/></clipPath><clipPath id="clipPath3860" clipPathUnits="userSpaceOnUse"><path id="path3862" d="m0 595h1040v-595h-1040v595z"/></clipPath><clipPath id="clipPath3880" clipPathUnits="userSpaceOnUse"><path id="path3882" d="m663.54 287.34h129.05v-129.05h-129.05v129.05z"/></clipPath><clipPath id="clipPath3904" clipPathUnits="userSpaceOnUse"><path id="path3906" d="m0 595h1040v-595h-1040v595z"/></clipPath><clipPath id="clipPath3942" clipPathUnits="userSpaceOnUse"><path id="path3944" d="m428.45 182.3h250.69v-41.385h-250.69v41.385z"/></clipPath><clipPath id="clipPath4022" clipPathUnits="userSpaceOnUse"><path id="path4024" d="m0 595h1040v-595h-1040v595z"/></clipPath></defs><g id="g3344" transform="matrix(1.25 0 0 -1.25 -74.439 593.13)"><g id="g3346"><g id="g3348" clip-path="url(#clipPath3350)"><g id="g3354"><g id="g3362"><g id="g3364" opacity=".39999" clip-path="url(#clipPath3358)"/></g></g><g id="g3374"><g id="g3382"><g id="g3384" opacity=".39999" clip-path="url(#clipPath3378)"><g id="g3386" transform="translate(188.1 396.38)"><path id="path3388" d="m0 0c0-35.36-28.665-64.024-64.024-64.024-35.36 0-64.025 28.664-64.025 64.024s28.665 64.024 64.025 64.024 64.025-28.664 64.025-64.024z" stroke="#244a7b" stroke-miterlimit="10" fill="none"/></g></g></g></g><g id="g3390"><g id="g3398"><g id="g3400" opacity=".39999" clip-path="url(#clipPath3394)"/></g></g><g id="g3406"><g id="g3414"><g id="g3416" opacity=".39999" clip-path="url(#clipPath3410)"/></g></g><g id="g3422"><g id="g3430"><g id="g3432" opacity=".39999" clip-path="url(#clipPath3426)"><g id="g3434" transform="translate(885.92 396.38)"><path id="path3436" d="m0 0c0-35.36-28.665-64.024-64.024-64.024-35.36 0-64.025 28.664-64.025 64.024s28.665 64.024 64.025 64.024 64.025-28.664 64.025-64.024z" stroke="#244a7b" stroke-miterlimit="10" fill="none"/></g></g></g></g><g id="g3438"><g id="g3446"><g id="g3448" opacity=".39999" clip-path="url(#clipPath3442)"><g id="g3450" transform="translate(420.71 396.38)"><path id="path3452" d="m0 0c0-35.36-28.665-64.024-64.024-64.024-35.36 0-64.025 28.664-64.025 64.024s28.665 64.024 64.025 64.024 64.025-28.664 64.025-64.024z" stroke="#244a7b" stroke-miterlimit="10" fill="none"/></g></g></g></g><g id="g3454"><g id="g3462"><g id="g3464" opacity=".39999" clip-path="url(#clipPath3458)"><g id="g3466" transform="translate(653.32 396.38)"><path id="path3468" d="m0 0c0-35.36-28.665-64.024-64.024-64.024-35.36 0-64.025 28.664-64.025 64.024s28.665 64.024 64.025 64.024 64.025-28.664 64.025-64.024z" stroke="#244a7b" stroke-miterlimit="10" fill="none"/></g></g></g></g><g id="g3470"><g id="g3478"><g id="g3480" opacity=".39999" clip-path="url(#clipPath3474)"/></g></g><g id="g3486"><g id="g3494"><g id="g3496" opacity=".39999" clip-path="url(#clipPath3490)"/></g></g><g id="g3502"><g id="g3510"><g id="g3512" opacity=".39999" clip-path="url(#clipPath3506)"/></g></g><g id="g3518"><g id="g3526"><g id="g3528" opacity=".39999" clip-path="url(#clipPath3522)"/></g></g><g id="g3534" transform="translate(138.17 460.4)"><path id="path3536" d="m0 0c0-7.786-6.312-14.098-14.098-14.098-7.785 0-14.097 6.312-14.097 14.098s6.312 14.098 14.097 14.098c7.786 0 14.098-6.312 14.098-14.098" fill="#2196d4"/></g></g></g><text id="text3570" font-weight="bold" transform="matrix(1 0 0 -1 118.37 454.38)" font-size="18px" font-family="Roboto" fill="#ffffff"><tspan id="tspan3572" y="0" x="0">1</tspan></text>
<g id="g3574"><g id="g3576" clip-path="url(#clipPath3578)"><g id="g3582" transform="translate(370.78 460.4)"><path id="path3584" d="m0 0c0-7.786-6.312-14.098-14.098-14.098-7.785 0-14.097 6.312-14.097 14.098s6.312 14.098 14.097 14.098c7.786 0 14.098-6.312 14.098-14.098" fill="#2196d4"/></g></g></g><text id="text3586" font-weight="bold" transform="matrix(1 0 0 -1 350.98 454.38)" font-size="18px" font-family="Roboto" fill="#ffffff"><tspan id="tspan3588" y="0" x="0">2</tspan></text>
<g id="g3590"><g id="g3592" clip-path="url(#clipPath3594)"><g id="g3598" transform="translate(603.39 460.4)"><path id="path3600" d="m0 0c0-7.786-6.312-14.098-14.098-14.098-7.785 0-14.097 6.312-14.097 14.098s6.312 14.098 14.097 14.098c7.786 0 14.098-6.312 14.098-14.098" fill="#2196d4"/></g></g></g><text id="text3602" font-weight="bold" transform="matrix(1 0 0 -1 583.58 454.38)" font-size="18px" font-family="Roboto" fill="#ffffff"><tspan id="tspan3604" y="0" x="0">3</tspan></text>
<g id="g3606"><g id="g3608" clip-path="url(#clipPath3610)"><g id="g3614" transform="translate(836 460.4)"><path id="path3616" d="m0 0c0-7.786-6.312-14.098-14.098-14.098-7.785 0-14.097 6.312-14.097 14.098s6.312 14.098 14.097 14.098c7.786 0 14.098-6.312 14.098-14.098" fill="#2196d4"/></g></g></g><text id="text3618" font-weight="bold" transform="matrix(1 0 0 -1 816.19 454.38)" font-size="18px" font-family="Roboto" fill="#ffffff"><tspan id="tspan3620" y="0" x="0">4</tspan></text>
<g id="g3642"><g id="g3644" clip-path="url(#clipPath3646)"><g id="g3650" transform="translate(350.5 419.37)"><path id="path3652" stroke-linejoin="round" d="m0 0c0 2.712-2.198 4.91-4.91 4.91h-18.67c-2.712 0-4.911-2.198-4.911-4.91v-5.54h28.491v-29.829" stroke="#2196d4" stroke-linecap="round" stroke-miterlimit="10" stroke-width="2" fill="none"/></g><g id="g3654" transform="translate(322.01 373.39)"><path id="path3656" stroke-linejoin="round" d="m0 0c0-2.712 2.198-4.91 4.91-4.91h18.67c2.712 0 4.911 2.198 4.911 4.91v5.54h-28.491v29.829" stroke="#2196d4" stroke-linecap="round" stroke-miterlimit="10" stroke-width="2" fill="none"/></g><g id="g3658" transform="translate(329.16 418.89)"><path id="path3660" stroke-linejoin="round" d="m0 0h14.185" stroke="#2196d4" stroke-linecap="round" stroke-miterlimit="10" stroke-width="2" fill="none"/></g><g id="g3662" transform="translate(333.78 373.8)"><path id="path3664" stroke-linejoin="round" d="m0 0h4.947" stroke="#2196d4" stroke-linecap="round" stroke-miterlimit="10" stroke-width="2" fill="none"/></g><g id="g3666" transform="translate(373.97 418.81)"><path id="path3668" d="m0 0c7.369 0.849 12.511-4.057 11.832-12.441-0.19-2.337-1.156-5.132-2.319-7.196-1.1-1.96-3.581-3.855-2.928-6.343 0.414-1.574 3.875-2.5 5.125-3.049 3.189-1.401 7.662-3.491 8.782-6.83 0.29-0.861 0.507-2.957 0-4.27-1.788-4.633-12.868-4.879-19.029-4.879-3.408 0-7.548 0.053-11.222 0.732-4.28 0.791-9.465 2.506-7.928 8.173 0.693 2.554 3.777 4.424 6.586 5.977 0.816 0.452 2.543 1.429 4.147 2.073 1.353 0.544 3.245 1.038 3.415 2.806 0.145 1.495-0.804 2.295-1.707 3.537-2.066 2.841-4.011 6.712-3.66 11.955 0.346 5.144 3.548 9.139 8.906 9.755z" stroke="#2196d4" stroke-linecap="round" stroke-miterlimit="10" stroke-width="2" fill="none"/></g><g id="g3670" transform="translate(142.12 371.39)"><path id="path3672" stroke-linejoin="round" d="m0 0h13.287c1.554 0 2.814 1.26 2.814 2.814v42.977c0 1.554-1.26 2.814-2.814 2.814h-5.912" stroke="#2196d4" stroke-linecap="round" stroke-miterlimit="10" stroke-width="2" fill="none"/></g><g id="g3674" transform="translate(98.651 371.39)"><path id="path3676" stroke-linejoin="round" d="m0 0h-5.912c-1.554 0-2.814 1.26-2.814 2.814v42.977c0 1.554 1.26 2.814 2.814 2.814h31.011 25.75v-43.605" stroke="#2196d4" stroke-linecap="round" stroke-miterlimit="10" stroke-width="2" fill="none"/></g><g id="g3678" transform="translate(118.1 371.39)"><path id="path3680" stroke-linejoin="round" d="m0 0h-19.448v43.605" stroke="#2196d4" stroke-linecap="round" stroke-miterlimit="10" stroke-width="2" fill="none"/></g><g id="g3682" transform="translate(122.9 373.29)"><path id="path3684" d="m0 0v21.618c0 1.326 1.076 2.402 2.403 2.402 1.326 0 2.402-1.076 2.402-2.402v-14.808" stroke="#2196d4" stroke-linecap="round" stroke-miterlimit="10" stroke-width="2" fill="none"/></g><g id="g3686" transform="translate(127.71 380.1)"><path id="path3688" d="m0 0v6.857c0 1.327 1.076 2.403 2.403 2.403 1.326 0 2.402-1.076 2.402-2.403v-9.208" stroke="#2196d4" stroke-linecap="round" stroke-miterlimit="10" stroke-width="2" fill="none"/></g><g id="g3690" transform="translate(132.51 377.75)"><path id="path3692" d="m0 0v6.806c0 1.326 1.076 2.402 2.403 2.402 1.326 0 2.402-1.076 2.402-2.402v-9.114" stroke="#2196d4" stroke-linecap="round" stroke-miterlimit="10" stroke-width="2" fill="none"/></g><g id="g3694" transform="translate(137.32 375.44)"><path id="path3696" d="m0 0v6.714c0 1.327 1.076 2.403 2.403 2.403 1.326 0 2.402-1.076 2.402-2.403v-10.087" stroke="#2196d4" stroke-linecap="round" stroke-miterlimit="10" stroke-width="2" fill="none"/></g><g id="g3698" transform="translate(118.1 372.07)"><path id="path3700" d="m0 0v7.692c0 1.327 1.076 2.403 2.403 2.403 1.326 0 2.402-1.076 2.402-2.403v-6.471" stroke="#2196d4" stroke-linecap="round" stroke-miterlimit="10" stroke-width="2" fill="none"/></g><g id="g3702" transform="translate(142.12 372.07)"><path id="path3704" d="m0 0c0-6.634-5.378-12.013-12.013-12.013-6.634 0-12.013 5.379-12.013 12.013" stroke="#2196d4" stroke-linecap="round" stroke-miterlimit="10" stroke-width="2" fill="none"/></g><g id="g3706" transform="translate(118.54 394.91)"><path id="path3708" d="m0 0c0 3.74 3.031 6.771 6.771 6.771 3.739 0 6.771-3.031 6.771-6.771" stroke="#2196d4" stroke-linecap="round" stroke-miterlimit="10" stroke-width="2" fill="none"/></g><g id="g3710" transform="translate(114.19 394.91)"><path id="path3712" d="m0 0c0 6.137 4.975 11.112 11.112 11.112s11.111-4.975 11.111-11.112" stroke="#2196d4" stroke-linecap="round" stroke-miterlimit="10" stroke-width="2" fill="none"/></g><g id="g3714" transform="translate(153.75 394.09)"><path id="path3716" stroke-linejoin="round" d="m0 0v3.223" stroke="#2196d4" stroke-linecap="round" stroke-miterlimit="10" stroke-width="2" fill="none"/></g><g id="g3718" transform="translate(622.67 376.79)"><path id="path3720" stroke-linejoin="round" d="m0 0 2.529-2.529c2.046-2.046 2.046-5.363 0-7.409-2.045-2.046-5.362-2.046-7.408 0l-13.336 13.336c-2.046 2.045-2.046 5.362 0 7.408s5.363 2.046 7.409 0l7.921-7.921" stroke="#2196d4" stroke-linecap="round" stroke-miterlimit="10" stroke-width="2" fill="none"/></g><g id="g3722" transform="translate(569.82 395.74)"><path id="path3724" stroke-linejoin="round" d="m0 0c-7.314 7.314-7.314 19.172 0 26.486s19.172 7.314 26.486 0 7.314-19.172 0-26.486-19.172-7.314-26.486 0z" stroke="#2196d4" stroke-linecap="round" stroke-miterlimit="10" stroke-width="2" fill="none"/></g><g id="g3726" transform="translate(604.46 387.59)"><path id="path3728" stroke-linejoin="round" d="m0 0-8.15 8.15" stroke="#2196d4" stroke-linecap="round" stroke-miterlimit="10" stroke-width="2" fill="none"/></g><g id="g3730" transform="translate(557 389.75)"><path id="path3732" stroke-linejoin="round" d="m0 0v-13.646" stroke="#2196d4" stroke-linecap="round" stroke-miterlimit="10" stroke-width="2" fill="none"/></g><g id="g3734" transform="translate(563.83 382.92)"><path id="path3736" stroke-linejoin="round" d="m0 0h-13.646" stroke="#2196d4" stroke-linecap="round" stroke-miterlimit="10" stroke-width="2" fill="none"/></g><g id="g3738" transform="translate(572.74 413.6)"><path id="path3740" stroke-linejoin="round" d="m0 0 6.336-6.336" stroke="#2196d4" stroke-linecap="round" stroke-miterlimit="10" stroke-width="2" fill="none"/></g><g id="g3742" transform="translate(574.17 405.71)"><path id="path3744" stroke-linejoin="round" d="m0 0 7.81-7.81" stroke="#2196d4" stroke-linecap="round" stroke-miterlimit="10" stroke-width="2" fill="none"/></g><g id="g3746"><g id="g3754"><g id="g3756" opacity=".39999" clip-path="url(#clipPath3750)"><g id="g3758" transform="translate(421.18 140.97)"><path id="path3760" d="m0 0c0-35.36-28.665-64.024-64.024-64.024-35.36 0-64.025 28.664-64.025 64.024s28.665 64.024 64.025 64.024 64.025-28.664 64.025-64.024z" stroke="#244a7b" stroke-miterlimit="10" fill="none"/></g></g></g></g><g id="g3776"><g id="g3784"><g id="g3786" opacity=".39999" clip-path="url(#clipPath3780)"/></g></g><g id="g3792"><g id="g3800"><g id="g3802" opacity=".39999" clip-path="url(#clipPath3796)"/></g></g><g id="g3808"><g id="g3816"><g id="g3818" opacity=".39999" clip-path="url(#clipPath3812)"/></g></g><g id="g3832"><g id="g3840"><g id="g3842" opacity=".39999" clip-path="url(#clipPath3836)"><g id="g3844" transform="translate(980.59 222.81)"><path id="path3846" d="m0 0c0-35.36-28.665-64.024-64.024-64.024-35.36 0-64.025 28.664-64.025 64.024s28.665 64.024 64.025 64.024 64.025-28.664 64.025-64.024z" stroke="#244a7b" stroke-miterlimit="10" fill="none"/></g></g></g></g><g id="g3848" transform="translate(866.64 222.81)"><path id="path3850" d="m0 0c0-7.786-6.312-14.098-14.098-14.098-7.785 0-14.097 6.312-14.097 14.098s6.312 14.098 14.097 14.098c7.786 0 14.098-6.312 14.098-14.098" fill="#2196d4"/></g></g></g><text id="text3852" font-weight="bold" transform="matrix(1 0 0 -1 843.46 218.04)" font-size="14px" font-family="Roboto" fill="#ffffff"><tspan id="tspan3854" y="0" x="0 8.0360003">5A</tspan></text>
<g id="g3856"><g id="g3858" clip-path="url(#clipPath3860)"><g id="g3864" transform="translate(931.7 213.05)"><path id="path3866" stroke-linejoin="round" d="m0 0-12.582-11.347-3.362-13.876h-9.071v20.581h-11.289l-7.022 6.374v20.962l6.635 8.253h28.589l7.865-8.253" stroke="#2196d4" stroke-linecap="round" stroke-miterlimit="10" stroke-width="2" fill="none"/></g><g id="g3868" transform="translate(946.77 232.29)"><path id="path3870" stroke-linejoin="round" d="m0 0v-23.876h-15.065v35.589h15.065v-6.199" stroke="#2196d4" stroke-linecap="round" stroke-miterlimit="10" stroke-width="2" fill="none"/></g><g id="g3872" transform="translate(939.23 214.05)"><path id="path3874" stroke-linejoin="round" d="m0 0v4.126" stroke="#2196d4" stroke-linecap="round" stroke-miterlimit="10" stroke-width="2" fill="none"/></g><g id="g3876"><g id="g3884"><g id="g3886" opacity=".39999" clip-path="url(#clipPath3880)"><g id="g3888" transform="translate(792.09 222.81)"><path id="path3890" d="m0 0c0-35.36-28.665-64.024-64.024-64.024-35.36 0-64.025 28.664-64.025 64.024s28.665 64.024 64.025 64.024 64.025-28.664 64.025-64.024z" stroke="#244a7b" stroke-miterlimit="10" fill="none"/></g></g></g></g><g id="g3892" transform="translate(678.79 222.81)"><path id="path3894" d="m0 0c0-7.786-6.312-14.098-14.098-14.098-7.785 0-14.097 6.312-14.097 14.098s6.312 14.098 14.097 14.098c7.786 0 14.098-6.312 14.098-14.098" fill="#2196d4"/></g></g></g><text id="text3896" font-weight="bold" transform="matrix(1 0 0 -1 655.61 218.04)" font-size="14px" font-family="Roboto" fill="#ffffff"><tspan id="tspan3898" y="0" x="0 8.0360003">5B</tspan></text>
<g id="g3900"><g id="g3902" clip-path="url(#clipPath3904)"><g id="g3908" transform="translate(716.94 232.57)"><path id="path3910" stroke-linejoin="round" d="m0 0 12.582 11.347 3.362 13.876h9.071v-20.581h11.289l7.022-6.374v-20.962l-6.635-8.253h-28.589l-7.865 8.253" stroke="#2196d4" stroke-linecap="round" stroke-miterlimit="10" stroke-width="2" fill="none"/></g><g id="g3912" transform="translate(701.87 213.34)"><path id="path3914" stroke-linejoin="round" d="m0 0v23.876h15.066v-35.589h-15.066v6.199" stroke="#2196d4" stroke-linecap="round" stroke-miterlimit="10" stroke-width="2" fill="none"/></g><g id="g3916" transform="translate(709.41 231.57)"><path id="path3918" stroke-linejoin="round" d="m0 0v-4.126" stroke="#2196d4" stroke-linecap="round" stroke-miterlimit="10" stroke-width="2" fill="none"/></g><g id="g3920" transform="translate(790.94 403.03)"><path id="path3922" stroke-linejoin="round" d="m0 0 14.78-14.78" stroke="#2196d4" stroke-linecap="round" stroke-miterlimit="10" stroke-width="2" fill="none"/></g><g id="g3924" transform="translate(805.72 403.03)"><path id="path3926" stroke-linejoin="round" d="m0 0-14.78-14.78" stroke="#2196d4" stroke-linecap="round" stroke-miterlimit="10" stroke-width="2" fill="none"/></g><path id="path3928" stroke-linejoin="round" d="m783.54 410.43h29.58v-29.58h-29.58v29.58z" stroke="#2196d4" stroke-linecap="round" stroke-miterlimit="10" stroke-width="2" fill="none"/><g id="g3930" transform="translate(864.65 405.07)"><path id="path3932" stroke-linejoin="round" d="m0 0-18.86-18.86-9.242 9.242" stroke="#2196d4" stroke-linecap="round" stroke-miterlimit="10" stroke-width="2" fill="none"/></g><g id="g3934" transform="translate(860.68 395.09)"><path id="path3936" stroke-linejoin="round" d="m0 0v-14.238h-29.58v29.58h29.58v-3.308" stroke="#2196d4" stroke-linecap="round" stroke-miterlimit="10" stroke-width="2" fill="none"/></g><g id="g3938"><g id="g3946"><g id="g3948" opacity=".39999" clip-path="url(#clipPath3942)"/></g></g></g></g><g id="g4018"><g id="g4020" clip-path="url(#clipPath4022)"><g id="g4026" transform="translate(348.4 142.43)"><path id="path4028" stroke-linejoin="round" d="m0 0v21.714h-9.989v-21.714" stroke="#2196d4" stroke-linecap="round" stroke-miterlimit="10" stroke-width="2" fill="none"/></g><path id="path4030" stroke-linejoin="round" d="m375.71 170.74h-37.305v4.845h37.305v-4.845z" stroke="#2196d4" stroke-linecap="round" stroke-miterlimit="10" stroke-width="2" fill="none"/><path id="path4032" stroke-linejoin="round" d="m375.71 147.87h-19.509v16.28h19.509v-16.28z" stroke="#2196d4" stroke-linecap="round" stroke-miterlimit="10" stroke-width="2" fill="none"/><g id="g4034" transform="translate(359.38 160.93)"><path id="path4036" stroke-linejoin="round" d="m0 0 3.861-3.861" stroke="#2196d4" stroke-linecap="round" stroke-miterlimit="10" stroke-width="2" fill="none"/></g><g id="g4038" transform="translate(364.12 160.27)"><path id="path4040" stroke-linejoin="round" d="m0 0 3.861-3.861" stroke="#2196d4" stroke-linecap="round" stroke-miterlimit="10" stroke-width="2" fill="none"/></g><g id="g4042" transform="translate(345.52 155.2)"><path id="path4044" stroke-linejoin="round" d="m0 0v-3.179" stroke="#2196d4" stroke-linecap="round" stroke-miterlimit="10" stroke-width="2" fill="none"/></g><g id="g4046" transform="translate(381.9 177.64)"><path id="path4048" stroke-linejoin="round" d="m0 0c0 2.212-1.793 4.006-4.006 4.006h-41.473c-2.212 0-4.005-1.794-4.005-4.006v-31.198c0-2.212 1.793-4.006 4.005-4.006h1.175 6.359 3.631 30.308c2.213 0 4.006 1.794 4.006 4.006v31.198z" stroke="#2196d4" stroke-linecap="round" stroke-miterlimit="10" stroke-width="2" fill="none"/></g><g id="g4050" transform="translate(337.04 101.18)"><path id="path4052" stroke-linejoin="round" d="m0 0h-4.625v29.521h31.988v-24.978" stroke="#2196d4" stroke-linecap="round" stroke-miterlimit="10" stroke-width="2" fill="none"/></g><g id="g4054" transform="translate(362.44 101.18)"><path id="path4056" stroke-linejoin="round" d="m0 0h-12.912" stroke="#2196d4" stroke-linecap="round" stroke-miterlimit="10" stroke-width="2" fill="none"/></g><g id="g4058" transform="translate(364.4 105.72)"><path id="path4060" stroke-linejoin="round" d="m0 0v18.889h17.497v-23.432h-6.971" stroke="#2196d4" stroke-linecap="round" stroke-miterlimit="10" stroke-width="2" fill="none"/></g><g id="g4062" transform="translate(328.42 124.61)"><path id="path4064" stroke-linejoin="round" d="m0 0h-12.675" stroke="#2196d4" stroke-linecap="round" stroke-miterlimit="10" stroke-width="2" fill="none"/></g><g id="g4066" transform="translate(328.42 119.75)"><path id="path4068" stroke-linejoin="round" d="m0 0h-7.842" stroke="#2196d4" stroke-linecap="round" stroke-miterlimit="10" stroke-width="2" fill="none"/></g><path id="path4070" stroke-linejoin="round" d="m381.9 112.89h-8.748v11.716h8.748v-11.716z" stroke="#2196d4" stroke-linecap="round" stroke-miterlimit="10" stroke-width="2" fill="none"/><g id="g4072" transform="translate(337.04 101.18)"><path id="path4074" stroke-linejoin="round" d="m0 0c0 3.449 2.796 6.244 6.244 6.244 3.449 0 6.244-2.795 6.244-6.244s-2.795-6.244-6.244-6.244c-3.448 0-6.244 2.795-6.244 6.244z" stroke="#2196d4" stroke-linecap="round" stroke-miterlimit="10" stroke-width="2" fill="none"/></g><g id="g4076" transform="translate(362.44 101.18)"><path id="path4078" stroke-linejoin="round" d="m0 0c0 3.449 2.796 6.244 6.244 6.244 3.449 0 6.244-2.795 6.244-6.244s-2.795-6.244-6.244-6.244c-3.448 0-6.244 2.795-6.244 6.244z" stroke="#2196d4" stroke-linecap="round" stroke-miterlimit="10" stroke-width="2" fill="none"/></g></g></g></g></svg>
